<?xml version="1.0" encoding="UTF-8"?>
<svg width="672.24pt" height="497.64pt" version="1.2" viewBox="0 0 672.24 497.64" xmlns="http://www.w3.org/2000/svg">
	<g transform="translate(-30.238 -16.68)">
		<path d="m382.68 509.04h319.8v-492.36h-319.8z" fill="#bdbdbd" fill-rule="evenodd"/>
		<path d="m378.84 514.32h319.8v-492.24h-319.8z" fill="#f0f0f0" fill-rule="evenodd"/>
		<g fill-rule="evenodd">
			<path d="m444 32.281h11.398v11.277h-11.398zm1.4102 1.4102v8.457h8.5781v-8.457z"/>
			<path d="m444 48.121h11.398v11.398h-11.398zm1.4219 1.418v8.5508h8.5469v-8.5508z"/>
			<path d="m444 64.078h11.398v11.281h-11.398zm1.4102 1.4102v8.4609h8.5781v-8.4609z"/>
			<path d="m444 79.922h11.398v11.398h-11.398zm1.4219 1.418v8.5508h8.5469v-8.5508z"/>
			<path d="m444 95.879h11.398v11.281h-11.398zm1.4102 1.4102v8.4609h8.5781v-8.4609z"/>
			<path d="m444 111.72h11.398v11.402h-11.398zm1.4219 1.4219v8.5586h8.5469v-8.5586z"/>
			<path d="m444 127.68h11.398v11.281h-11.398zm1.4102 1.4102v8.4609h8.5781v-8.4609z"/>
			<path d="m444 143.52h11.398v11.402h-11.398zm1.4219 1.4297v8.5391h8.5469v-8.5391z"/>
			<path d="m444 159.36h11.398v11.402h-11.398zm1.4219 1.4219v8.5469h8.5469v-8.5469z"/>
			<path d="m444 175.32h11.398v11.281h-11.398zm1.4102 1.4102v8.4609h8.5781v-8.4609z"/>
			<path d="m444 191.16h11.398v11.398h-11.398zm1.4219 1.418v8.5625h8.5469v-8.5625z"/>
			<path d="m444 207.12h11.398v11.277h-11.398zm1.4102 1.4102v8.457h8.5781v-8.457z"/>
			<path d="m444 222.96h11.398v11.398h-11.398zm1.4219 1.4297v8.5391h8.5469v-8.5391z"/>
			<path d="m444 238.92h11.398v11.277h-11.398zm1.4102 1.4062v8.4609h8.5781v-8.4609z"/>
			<path d="m444 254.76h11.398v11.398h-11.398zm1.4219 1.418v8.5508h8.5469v-8.5508z"/>
			<path d="m444 270.72h11.398v11.281h-11.398zm1.4102 1.4102v8.4609h8.5781v-8.4609z"/>
			<path d="m444 286.56h11.398v11.281h-11.398zm1.4102 1.4102v8.4609h8.5781v-8.4609z"/>
			<path d="m444 302.4h11.398v11.402h-11.398zm1.4219 1.4219v8.5508h8.5469v-8.5508z"/>
			<path d="m444 318.36h11.398v11.281h-11.398zm1.4102 1.4102v8.4609h8.5781v-8.4609z"/>
			<path d="m444 334.2h11.398v11.402h-11.398zm1.4219 1.4219v8.5508h8.5469v-8.5508z"/>
			<path d="m444 350.16h11.398v11.281h-11.398zm1.4102 1.4102v8.4609h8.5781v-8.4609z"/>
			<path d="m444 366h11.398v11.398h-11.398zm1.4219 1.4219v8.5469h8.5469v-8.5469z"/>
			<path d="m444 381.96h11.398v11.277h-11.398zm1.4102 1.4102v8.457h8.5781v-8.457z"/>
			<path d="m444 397.8h11.398v11.398h-11.398zm1.4219 1.418v8.5508h8.5469v-8.5508z"/>
			<path d="m444 413.64h11.398v11.398h-11.398zm1.4219 1.418v8.5508h8.5469v-8.5508z"/>
			<path d="m444 429.6h11.398v11.277h-11.398zm1.4102 1.4102v8.457h8.5781v-8.457z"/>
			<path d="m444 445.44h11.398v11.398h-11.398zm1.4219 1.4219v8.5508h8.5469v-8.5508z"/>
			<path d="m444 461.4h11.398v11.281h-11.398zm1.4102 1.4102v8.4609h8.5781v-8.4609z"/>
			<path d="m444 477.24h11.398v11.402h-11.398zm1.4219 1.4258v8.5508h8.5469v-8.5508z"/>
			<path d="m444 493.2h11.398v11.281h-11.398zm1.4102 1.4102v8.4609h8.5781v-8.4609z"/>
			<path d="m462.48 32.281h11.281v11.277h-11.281zm1.4102 1.4102v8.457h8.4609v-8.457z"/>
			<path d="m462.48 48.121h11.281v11.398h-11.281zm1.4102 1.4102v8.5781h8.4609v-8.5781z"/>
			<path d="m462.48 64.078h11.281v11.281h-11.281zm1.4102 1.4102v8.4609h8.4609v-8.4609z"/>
			<path d="m462.48 79.922h11.281v11.398h-11.281zm1.4102 1.4062v8.582h8.4609v-8.582z"/>
			<path d="m462.48 95.879h11.281v11.281h-11.281zm1.4102 1.4102v8.4609h8.4609v-8.4609z"/>
			<path d="m462.48 111.72h11.281v11.402h-11.281zm1.4102 1.4102v8.582h8.4609v-8.582z"/>
			<path d="m462.48 127.68h11.281v11.281h-11.281zm1.4102 1.4102v8.4609h8.4609v-8.4609z"/>
			<path d="m462.48 143.52h11.281v11.402h-11.281zm1.4102 1.4102v8.582h8.4609v-8.582z"/>
			<path d="m462.48 159.36h11.281v11.402h-11.281zm1.4102 1.4102v8.582h8.4609v-8.582z"/>
			<path d="m462.48 175.32h11.281v11.281h-11.281zm1.4102 1.4102v8.4609h8.4609v-8.4609z"/>
			<path d="m462.48 191.16h11.281v11.398h-11.281zm1.4102 1.4102v8.5781h8.4609v-8.5781z"/>
			<path d="m462.48 207.12h11.281v11.277h-11.281zm1.4102 1.4102v8.457h8.4609v-8.457z"/>
			<path d="m462.48 222.96h11.281v11.398h-11.281zm1.4102 1.4102v8.5781h8.4609v-8.5781z"/>
			<path d="m462.48 238.92h11.281v11.277h-11.281zm1.4102 1.4062v8.4609h8.4609v-8.4609z"/>
			<path d="m462.48 254.76h11.281v11.398h-11.281zm1.4102 1.4102v8.5781h8.4609v-8.5781z"/>
			<path d="m462.48 270.72h11.281v11.281h-11.281zm1.4102 1.4102v8.4609h8.4609v-8.4609z"/>
			<path d="m462.48 286.56h11.281v11.281h-11.281zm1.4102 1.4102v8.4609h8.4609v-8.4609z"/>
			<path d="m462.48 302.4h11.281v11.402h-11.281zm1.4102 1.4102v8.582h8.4609v-8.582z"/>
			<path d="m462.48 318.36h11.281v11.281h-11.281zm1.4102 1.4102v8.4609h8.4609v-8.4609z"/>
			<path d="m462.48 334.2h11.281v11.402h-11.281zm1.4102 1.4102v8.582h8.4609v-8.582z"/>
			<path d="m462.48 350.16h11.281v11.281h-11.281zm1.4102 1.4102v8.4609h8.4609v-8.4609z"/>
			<path d="m462.48 366h11.281v11.398h-11.281zm1.4102 1.4102v8.5781h8.4609v-8.5781z"/>
			<path d="m462.48 381.96h11.281v11.277h-11.281zm1.4102 1.4102v8.457h8.4609v-8.457z"/>
			<path d="m462.48 397.8h11.281v11.398h-11.281zm1.4102 1.4102v8.5781h8.4609v-8.5781z"/>
			<path d="m462.48 413.64h11.281v11.398h-11.281zm1.4102 1.4102v8.5781h8.4609v-8.5781z"/>
			<path d="m462.48 429.6h11.281v11.277h-11.281zm1.4102 1.4102v8.457h8.4609v-8.457z"/>
			<path d="m462.48 445.44h11.281v11.398h-11.281zm1.4102 1.4102v8.5781h8.4609v-8.5781z"/>
			<path d="m462.48 461.4h11.281v11.281h-11.281zm1.4102 1.4102v8.4609h8.4609v-8.4609z"/>
			<path d="m462.48 477.24h11.281v11.402h-11.281zm1.4102 1.4102v8.582h8.4609v-8.582z"/>
			<path d="m462.48 493.2h11.281v11.281h-11.281zm1.4102 1.4102v8.4609h8.4609v-8.4609z"/>
			<path d="m480.96 32.281h11.277v11.277h-11.277zm1.4102 1.4102v8.457h8.457v-8.457z"/>
			<path d="m480.96 48.121h11.277v11.398h-11.277zm1.4102 1.4102v8.5781h8.457v-8.5781z"/>
			<path d="m480.96 64.078h11.277v11.281h-11.277zm1.4102 1.4102v8.4609h8.457v-8.4609z"/>
			<path d="m480.96 79.922h11.277v11.398h-11.277zm1.4102 1.4062v8.582h8.457v-8.582z"/>
			<path d="m480.96 95.879h11.277v11.281h-11.277zm1.4102 1.4102v8.4609h8.457v-8.4609z"/>
			<path d="m480.96 111.72h11.277v11.402h-11.277zm1.4102 1.4102v8.582h8.457v-8.582z"/>
			<path d="m480.96 127.68h11.277v11.281h-11.277zm1.4102 1.4102v8.4609h8.457v-8.4609z"/>
			<path d="m480.96 143.52h11.277v11.402h-11.277zm1.4102 1.4102v8.582h8.457v-8.582z"/>
			<path d="m480.96 159.36h11.277v11.402h-11.277zm1.4102 1.4102v8.582h8.457v-8.582z"/>
			<path d="m480.96 175.32h11.277v11.281h-11.277zm1.4102 1.4102v8.4609h8.457v-8.4609z"/>
			<path d="m480.96 191.16h11.277v11.398h-11.277zm1.4102 1.4102v8.5781h8.457v-8.5781z"/>
			<path d="m480.96 207.12h11.277v11.277h-11.277zm1.4102 1.4102v8.457h8.457v-8.457z"/>
			<path d="m480.96 222.96h11.277v11.398h-11.277zm1.4102 1.4102v8.5781h8.457v-8.5781z"/>
			<path d="m480.96 238.92h11.277v11.277h-11.277zm1.4102 1.4062v8.4609h8.457v-8.4609z"/>
			<path d="m480.96 254.76h11.277v11.398h-11.277zm1.4102 1.4102v8.5781h8.457v-8.5781z"/>
			<path d="m480.96 270.72h11.277v11.281h-11.277zm1.4102 1.4102v8.4609h8.457v-8.4609z"/>
			<path d="m480.96 286.56h11.277v11.281h-11.277zm1.4102 1.4102v8.4609h8.457v-8.4609z"/>
			<path d="m480.96 302.4h11.277v11.402h-11.277zm1.4102 1.4102v8.582h8.457v-8.582z"/>
			<path d="m480.96 318.36h11.277v11.281h-11.277zm1.4102 1.4102v8.4609h8.457v-8.4609z"/>
			<path d="m480.96 334.2h11.277v11.402h-11.277zm1.4102 1.4102v8.582h8.457v-8.582z"/>
			<path d="m480.96 350.16h11.277v11.281h-11.277zm1.4102 1.4102v8.4609h8.457v-8.4609z"/>
			<path d="m480.96 366h11.277v11.398h-11.277zm1.4102 1.4102v8.5781h8.457v-8.5781z"/>
			<path d="m480.96 381.96h11.277v11.277h-11.277zm1.4102 1.4102v8.457h8.457v-8.457z"/>
			<path d="m480.96 397.8h11.277v11.398h-11.277zm1.4102 1.4102v8.5781h8.457v-8.5781z"/>
			<path d="m480.96 413.64h11.277v11.398h-11.277zm1.4102 1.4102v8.5781h8.457v-8.5781z"/>
			<path d="m480.96 429.6h11.277v11.277h-11.277zm1.4102 1.4102v8.457h8.457v-8.457z"/>
			<path d="m480.96 445.44h11.277v11.398h-11.277zm1.4102 1.4102v8.5781h8.457v-8.5781z"/>
			<path d="m480.96 461.4h11.277v11.281h-11.277zm1.4102 1.4102v8.4609h8.457v-8.4609z"/>
			<path d="m480.96 477.24h11.277v11.402h-11.277zm1.4102 1.4102v8.582h8.457v-8.582z"/>
			<path d="m480.96 493.2h11.277v11.281h-11.277zm1.4102 1.4102v8.4609h8.457v-8.4609z"/>
			<path d="m499.32 32.281h11.398v11.277h-11.398zm1.4102 1.4102v8.457h8.5781v-8.457z"/>
			<path d="m499.32 48.121h11.398v11.398h-11.398zm1.418 1.418v8.5508h8.5508v-8.5508z"/>
			<path d="m499.32 64.078h11.398v11.281h-11.398zm1.4102 1.4102v8.4609h8.5781v-8.4609z"/>
			<path d="m499.32 79.922h11.398v11.398h-11.398zm1.418 1.418v8.5508h8.5508v-8.5508z"/>
			<path d="m499.32 95.879h11.398v11.281h-11.398zm1.4102 1.4102v8.4609h8.5781v-8.4609z"/>
			<path d="m499.32 111.72h11.398v11.402h-11.398zm1.418 1.4219v8.5586h8.5508v-8.5586z"/>
			<path d="m499.32 127.68h11.398v11.281h-11.398zm1.4102 1.4102v8.4609h8.5781v-8.4609z"/>
			<path d="m499.32 143.52h11.398v11.402h-11.398zm1.418 1.4297v8.5391h8.5508v-8.5391z"/>
			<path d="m499.32 159.36h11.398v11.402h-11.398zm1.418 1.4219v8.5469h8.5508v-8.5469z"/>
			<path d="m499.32 175.32h11.398v11.281h-11.398zm1.4102 1.4102v8.4609h8.5781v-8.4609z"/>
			<path d="m499.32 191.16h11.398v11.398h-11.398zm1.418 1.418v8.5625h8.5508v-8.5625z"/>
			<path d="m499.32 207.12h11.398v11.277h-11.398zm1.4102 1.4102v8.457h8.5781v-8.457z"/>
			<path d="m499.32 222.96h11.398v11.398h-11.398zm1.418 1.4297v8.5391h8.5508v-8.5391z"/>
			<path d="m499.32 238.92h11.398v11.277h-11.398zm1.4102 1.4062v8.4609h8.5781v-8.4609z"/>
			<path d="m499.32 254.76h11.398v11.398h-11.398zm1.418 1.418v8.5508h8.5508v-8.5508z"/>
			<path d="m499.32 270.72h11.398v11.281h-11.398zm1.4102 1.4102v8.4609h8.5781v-8.4609z"/>
			<path d="m499.32 286.56h11.398v11.281h-11.398zm1.4102 1.4102v8.4609h8.5781v-8.4609z"/>
			<path d="m499.32 302.4h11.398v11.402h-11.398zm1.418 1.4219v8.5508h8.5508v-8.5508z"/>
			<path d="m499.32 318.36h11.398v11.281h-11.398zm1.4102 1.4102v8.4609h8.5781v-8.4609z"/>
			<path d="m499.32 334.2h11.398v11.402h-11.398zm1.418 1.4219v8.5508h8.5508v-8.5508z"/>
			<path d="m499.32 350.16h11.398v11.281h-11.398zm1.4102 1.4102v8.4609h8.5781v-8.4609z"/>
			<path d="m499.32 366h11.398v11.398h-11.398zm1.418 1.4219v8.5469h8.5508v-8.5469z"/>
			<path d="m499.32 381.96h11.398v11.277h-11.398zm1.4102 1.4102v8.457h8.5781v-8.457z"/>
			<path d="m499.32 397.8h11.398v11.398h-11.398zm1.418 1.418v8.5508h8.5508v-8.5508z"/>
			<path d="m499.32 413.64h11.398v11.398h-11.398zm1.418 1.418v8.5508h8.5508v-8.5508z"/>
			<path d="m499.32 429.6h11.398v11.277h-11.398zm1.4102 1.4102v8.457h8.5781v-8.457z"/>
			<path d="m499.32 445.44h11.398v11.398h-11.398zm1.418 1.4219v8.5508h8.5508v-8.5508z"/>
			<path d="m499.32 461.4h11.398v11.281h-11.398zm1.4102 1.4102v8.4609h8.5781v-8.4609z"/>
			<path d="m499.32 477.24h11.398v11.402h-11.398zm1.418 1.4258v8.5508h8.5508v-8.5508z"/>
			<path d="m499.32 493.2h11.398v11.281h-11.398zm1.4102 1.4102v8.4609h8.5781v-8.4609z"/>
			<path d="m517.8 32.281h11.398v11.277h-11.398zm1.4102 1.4102v8.457h8.5781v-8.457z"/>
			<path d="m517.8 48.121h11.398v11.398h-11.398zm1.418 1.418v8.5508h8.5508v-8.5508z"/>
			<path d="m517.8 64.078h11.398v11.281h-11.398zm1.4102 1.4102v8.4609h8.5781v-8.4609z"/>
			<path d="m517.8 79.922h11.398v11.398h-11.398zm1.418 1.418v8.5508h8.5508v-8.5508z"/>
			<path d="m517.8 95.879h11.398v11.281h-11.398zm1.4102 1.4102v8.4609h8.5781v-8.4609z"/>
			<path d="m517.8 111.72h11.398v11.402h-11.398zm1.418 1.4219v8.5586h8.5508v-8.5586z"/>
			<path d="m517.8 127.68h11.398v11.281h-11.398zm1.4102 1.4102v8.4609h8.5781v-8.4609z"/>
			<path d="m517.8 143.52h11.398v11.402h-11.398zm1.418 1.4297v8.5391h8.5508v-8.5391z"/>
			<path d="m517.8 159.36h11.398v11.402h-11.398zm1.418 1.4219v8.5469h8.5508v-8.5469z"/>
			<path d="m517.8 175.32h11.398v11.281h-11.398zm1.4102 1.4102v8.4609h8.5781v-8.4609z"/>
			<path d="m517.8 191.16h11.398v11.398h-11.398zm1.418 1.418v8.5625h8.5508v-8.5625z"/>
			<path d="m517.8 207.12h11.398v11.277h-11.398zm1.4102 1.4102v8.457h8.5781v-8.457z"/>
			<path d="m517.8 222.96h11.398v11.398h-11.398zm1.418 1.4297v8.5391h8.5508v-8.5391z"/>
			<path d="m517.8 238.92h11.398v11.277h-11.398zm1.4102 1.4062v8.4609h8.5781v-8.4609z"/>
			<path d="m517.8 254.76h11.398v11.398h-11.398zm1.418 1.418v8.5508h8.5508v-8.5508z"/>
			<path d="m517.8 270.72h11.398v11.281h-11.398zm1.4102 1.4102v8.4609h8.5781v-8.4609z"/>
			<path d="m517.8 286.56h11.398v11.281h-11.398zm1.4102 1.4102v8.4609h8.5781v-8.4609z"/>
			<path d="m517.8 302.4h11.398v11.402h-11.398zm1.418 1.4219v8.5508h8.5508v-8.5508z"/>
			<path d="m517.8 318.36h11.398v11.281h-11.398zm1.4102 1.4102v8.4609h8.5781v-8.4609z"/>
			<path d="m517.8 334.2h11.398v11.402h-11.398zm1.418 1.4219v8.5508h8.5508v-8.5508z"/>
			<path d="m517.8 350.16h11.398v11.281h-11.398zm1.4102 1.4102v8.4609h8.5781v-8.4609z"/>
			<path d="m517.8 366h11.398v11.398h-11.398zm1.418 1.4219v8.5469h8.5508v-8.5469z"/>
			<path d="m517.8 381.96h11.398v11.277h-11.398zm1.4102 1.4102v8.457h8.5781v-8.457z"/>
			<path d="m517.8 397.8h11.398v11.398h-11.398zm1.418 1.418v8.5508h8.5508v-8.5508z"/>
			<path d="m517.8 413.64h11.398v11.398h-11.398zm1.418 1.418v8.5508h8.5508v-8.5508z"/>
			<path d="m517.8 429.6h11.398v11.277h-11.398zm1.4102 1.4102v8.457h8.5781v-8.457z"/>
			<path d="m517.8 445.44h11.398v11.398h-11.398zm1.418 1.4219v8.5508h8.5508v-8.5508z"/>
			<path d="m517.8 461.4h11.398v11.281h-11.398zm1.4102 1.4102v8.4609h8.5781v-8.4609z"/>
			<path d="m517.8 477.24h11.398v11.402h-11.398zm1.418 1.4258v8.5508h8.5508v-8.5508z"/>
			<path d="m517.8 493.2h11.398v11.281h-11.398zm1.4102 1.4102v8.4609h8.5781v-8.4609z"/>
			<path d="m548.16 32.281h11.281v11.277h-11.281zm1.4102 1.4102v8.457h8.4609v-8.457z"/>
			<path d="m548.16 48.121h11.281v11.398h-11.281zm1.4102 1.4102v8.5781h8.4609v-8.5781z"/>
			<path d="m548.16 64.078h11.281v11.281h-11.281zm1.4102 1.4102v8.4609h8.4609v-8.4609z"/>
			<path d="m548.16 79.922h11.281v11.398h-11.281zm1.4102 1.4062v8.582h8.4609v-8.582z"/>
			<path d="m548.16 95.879h11.281v11.281h-11.281zm1.4102 1.4102v8.4609h8.4609v-8.4609z"/>
			<path d="m548.16 111.72h11.281v11.402h-11.281zm1.4102 1.4102v8.582h8.4609v-8.582z"/>
			<path d="m548.16 127.68h11.281v11.281h-11.281zm1.4102 1.4102v8.4609h8.4609v-8.4609z"/>
			<path d="m548.16 143.52h11.281v11.402h-11.281zm1.4102 1.4102v8.582h8.4609v-8.582z"/>
			<path d="m548.16 159.36h11.281v11.402h-11.281zm1.4102 1.4102v8.582h8.4609v-8.582z"/>
			<path d="m548.16 175.32h11.281v11.281h-11.281zm1.4102 1.4102v8.4609h8.4609v-8.4609z"/>
			<path d="m548.16 191.16h11.281v11.398h-11.281zm1.4102 1.4102v8.5781h8.4609v-8.5781z"/>
			<path d="m548.16 207.12h11.281v11.277h-11.281zm1.4102 1.4102v8.457h8.4609v-8.457z"/>
			<path d="m548.16 222.96h11.281v11.398h-11.281zm1.4102 1.4102v8.5781h8.4609v-8.5781z"/>
			<path d="m548.16 238.92h11.281v11.277h-11.281zm1.4102 1.4062v8.4609h8.4609v-8.4609z"/>
			<path d="m548.16 254.76h11.281v11.398h-11.281zm1.4102 1.4102v8.5781h8.4609v-8.5781z"/>
			<path d="m548.16 270.72h11.281v11.281h-11.281zm1.4102 1.4102v8.4609h8.4609v-8.4609z"/>
			<path d="m548.16 286.56h11.281v11.281h-11.281zm1.4102 1.4102v8.4609h8.4609v-8.4609z"/>
			<path d="m548.16 302.4h11.281v11.402h-11.281zm1.4102 1.4102v8.582h8.4609v-8.582z"/>
			<path d="m548.16 318.36h11.281v11.281h-11.281zm1.4102 1.4102v8.4609h8.4609v-8.4609z"/>
			<path d="m548.16 334.2h11.281v11.402h-11.281zm1.4102 1.4102v8.582h8.4609v-8.582z"/>
			<path d="m548.16 350.16h11.281v11.281h-11.281zm1.4102 1.4102v8.4609h8.4609v-8.4609z"/>
			<path d="m548.16 366h11.281v11.398h-11.281zm1.4102 1.4102v8.5781h8.4609v-8.5781z"/>
			<path d="m548.16 381.96h11.281v11.277h-11.281zm1.4102 1.4102v8.457h8.4609v-8.457z"/>
			<path d="m548.16 397.8h11.281v11.398h-11.281zm1.4102 1.4102v8.5781h8.4609v-8.5781z"/>
			<path d="m548.16 413.64h11.281v11.398h-11.281zm1.4102 1.4102v8.5781h8.4609v-8.5781z"/>
			<path d="m548.16 429.6h11.281v11.277h-11.281zm1.4102 1.4102v8.457h8.4609v-8.457z"/>
			<path d="m548.16 445.44h11.281v11.398h-11.281zm1.4102 1.4102v8.5781h8.4609v-8.5781z"/>
			<path d="m548.16 461.4h11.281v11.281h-11.281zm1.4102 1.4102v8.4609h8.4609v-8.4609z"/>
			<path d="m548.16 477.24h11.281v11.402h-11.281zm1.4102 1.4102v8.582h8.4609v-8.582z"/>
			<path d="m548.16 493.2h11.281v11.281h-11.281zm1.4102 1.4102v8.4609h8.4609v-8.4609z"/>
			<path d="m566.64 32.281h11.281v11.277h-11.281zm1.4102 1.4102v8.457h8.4609v-8.457z"/>
			<path d="m566.64 48.121h11.281v11.398h-11.281zm1.4102 1.4102v8.5781h8.4609v-8.5781z"/>
			<path d="m566.64 64.078h11.281v11.281h-11.281zm1.4102 1.4102v8.4609h8.4609v-8.4609z"/>
			<path d="m566.64 79.922h11.281v11.398h-11.281zm1.4102 1.4062v8.582h8.4609v-8.582z"/>
			<path d="m566.64 95.879h11.281v11.281h-11.281zm1.4102 1.4102v8.4609h8.4609v-8.4609z"/>
			<path d="m566.64 111.72h11.281v11.402h-11.281zm1.4102 1.4102v8.582h8.4609v-8.582z"/>
			<path d="m566.64 127.68h11.281v11.281h-11.281zm1.4102 1.4102v8.4609h8.4609v-8.4609z"/>
			<path d="m566.64 143.52h11.281v11.402h-11.281zm1.4102 1.4102v8.582h8.4609v-8.582z"/>
			<path d="m566.64 159.36h11.281v11.402h-11.281zm1.4102 1.4102v8.582h8.4609v-8.582z"/>
			<path d="m566.64 175.32h11.281v11.281h-11.281zm1.4102 1.4102v8.4609h8.4609v-8.4609z"/>
			<path d="m566.64 191.16h11.281v11.398h-11.281zm1.4102 1.4102v8.5781h8.4609v-8.5781z"/>
			<path d="m566.64 207.12h11.281v11.277h-11.281zm1.4102 1.4102v8.457h8.4609v-8.457z"/>
			<path d="m566.64 222.96h11.281v11.398h-11.281zm1.4102 1.4102v8.5781h8.4609v-8.5781z"/>
			<path d="m566.64 238.92h11.281v11.277h-11.281zm1.4102 1.4062v8.4609h8.4609v-8.4609z"/>
			<path d="m566.64 254.76h11.281v11.398h-11.281zm1.4102 1.4102v8.5781h8.4609v-8.5781z"/>
			<path d="m566.64 270.72h11.281v11.281h-11.281zm1.4102 1.4102v8.4609h8.4609v-8.4609z"/>
			<path d="m566.64 286.56h11.281v11.281h-11.281zm1.4102 1.4102v8.4609h8.4609v-8.4609z"/>
			<path d="m566.64 302.4h11.281v11.402h-11.281zm1.4102 1.4102v8.582h8.4609v-8.582z"/>
			<path d="m566.64 318.36h11.281v11.281h-11.281zm1.4102 1.4102v8.4609h8.4609v-8.4609z"/>
			<path d="m566.64 334.2h11.281v11.402h-11.281zm1.4102 1.4102v8.582h8.4609v-8.582z"/>
			<path d="m566.64 350.16h11.281v11.281h-11.281zm1.4102 1.4102v8.4609h8.4609v-8.4609z"/>
			<path d="m566.64 366h11.281v11.398h-11.281zm1.4102 1.4102v8.5781h8.4609v-8.5781z"/>
			<path d="m566.64 381.96h11.281v11.277h-11.281zm1.4102 1.4102v8.457h8.4609v-8.457z"/>
			<path d="m566.64 397.8h11.281v11.398h-11.281zm1.4102 1.4102v8.5781h8.4609v-8.5781z"/>
			<path d="m566.64 413.64h11.281v11.398h-11.281zm1.4102 1.4102v8.5781h8.4609v-8.5781z"/>
			<path d="m566.64 429.6h11.281v11.277h-11.281zm1.4102 1.4102v8.457h8.4609v-8.457z"/>
			<path d="m566.64 445.44h11.281v11.398h-11.281zm1.4102 1.4102v8.5781h8.4609v-8.5781z"/>
			<path d="m566.64 461.4h11.281v11.281h-11.281zm1.4102 1.4102v8.4609h8.4609v-8.4609z"/>
			<path d="m566.64 477.24h11.281v11.402h-11.281zm1.4102 1.4102v8.582h8.4609v-8.582z"/>
			<path d="m566.64 493.2h11.281v11.281h-11.281zm1.4102 1.4102v8.4609h8.4609v-8.4609z"/>
			<path d="m585 32.281h11.398v11.277h-11.398zm1.4102 1.4102v8.457h8.5781v-8.457z"/>
			<path d="m585 48.121h11.398v11.398h-11.398zm1.4219 1.418v8.5508h8.5469v-8.5508z"/>
			<path d="m585 64.078h11.398v11.281h-11.398zm1.4102 1.4102v8.4609h8.5781v-8.4609z"/>
			<path d="m585 79.922h11.398v11.398h-11.398zm1.4219 1.418v8.5508h8.5469v-8.5508z"/>
			<path d="m585 95.879h11.398v11.281h-11.398zm1.4102 1.4102v8.4609h8.5781v-8.4609z"/>
			<path d="m585 111.72h11.398v11.402h-11.398zm1.4219 1.4219v8.5586h8.5469v-8.5586z"/>
			<path d="m585 127.68h11.398v11.281h-11.398zm1.4102 1.4102v8.4609h8.5781v-8.4609z"/>
			<path d="m585 143.52h11.398v11.402h-11.398zm1.4219 1.4297v8.5391h8.5469v-8.5391z"/>
			<path d="m585 159.36h11.398v11.402h-11.398zm1.4219 1.4219v8.5469h8.5469v-8.5469z"/>
			<path d="m585 175.32h11.398v11.281h-11.398zm1.4102 1.4102v8.4609h8.5781v-8.4609z"/>
			<path d="m585 191.16h11.398v11.398h-11.398zm1.4219 1.418v8.5625h8.5469v-8.5625z"/>
			<path d="m585 207.12h11.398v11.277h-11.398zm1.4102 1.4102v8.457h8.5781v-8.457z"/>
			<path d="m585 222.96h11.398v11.398h-11.398zm1.4219 1.4297v8.5391h8.5469v-8.5391z"/>
			<path d="m585 238.92h11.398v11.277h-11.398zm1.4102 1.4062v8.4609h8.5781v-8.4609z"/>
			<path d="m585 254.76h11.398v11.398h-11.398zm1.4219 1.418v8.5508h8.5469v-8.5508z"/>
			<path d="m585 270.72h11.398v11.281h-11.398zm1.4102 1.4102v8.4609h8.5781v-8.4609z"/>
			<path d="m585 286.56h11.398v11.281h-11.398zm1.4102 1.4102v8.4609h8.5781v-8.4609z"/>
			<path d="m585 302.4h11.398v11.402h-11.398zm1.4219 1.4219v8.5508h8.5469v-8.5508z"/>
			<path d="m585 318.36h11.398v11.281h-11.398zm1.4102 1.4102v8.4609h8.5781v-8.4609z"/>
			<path d="m585 334.2h11.398v11.402h-11.398zm1.4219 1.4219v8.5508h8.5469v-8.5508z"/>
			<path d="m585 350.16h11.398v11.281h-11.398zm1.4102 1.4102v8.4609h8.5781v-8.4609z"/>
			<path d="m585 366h11.398v11.398h-11.398zm1.4219 1.4219v8.5469h8.5469v-8.5469z"/>
			<path d="m585 381.96h11.398v11.277h-11.398zm1.4102 1.4102v8.457h8.5781v-8.457z"/>
			<path d="m585 397.8h11.398v11.398h-11.398zm1.4219 1.418v8.5508h8.5469v-8.5508z"/>
			<path d="m585 413.64h11.398v11.398h-11.398zm1.4219 1.418v8.5508h8.5469v-8.5508z"/>
			<path d="m585 429.6h11.398v11.277h-11.398zm1.4102 1.4102v8.457h8.5781v-8.457z"/>
			<path d="m585 445.44h11.398v11.398h-11.398zm1.4219 1.4219v8.5508h8.5469v-8.5508z"/>
			<path d="m585 461.4h11.398v11.281h-11.398zm1.4102 1.4102v8.4609h8.5781v-8.4609z"/>
			<path d="m585 477.24h11.398v11.402h-11.398zm1.4219 1.4258v8.5508h8.5469v-8.5508z"/>
			<path d="m585 493.2h11.398v11.281h-11.398zm1.4102 1.4102v8.4609h8.5781v-8.4609z"/>
			<path d="m603.48 32.281h11.398v11.277h-11.398zm1.4102 1.4102v8.457h8.5781v-8.457z"/>
			<path d="m603.48 48.121h11.398v11.398h-11.398zm1.418 1.418v8.5508h8.5508v-8.5508z"/>
			<path d="m603.48 64.078h11.398v11.281h-11.398zm1.4102 1.4102v8.4609h8.5781v-8.4609z"/>
			<path d="m603.48 79.922h11.398v11.398h-11.398zm1.418 1.418v8.5508h8.5508v-8.5508z"/>
			<path d="m603.48 95.879h11.398v11.281h-11.398zm1.4102 1.4102v8.4609h8.5781v-8.4609z"/>
			<path d="m603.48 111.72h11.398v11.402h-11.398zm1.418 1.4219v8.5586h8.5508v-8.5586z"/>
			<path d="m603.48 127.68h11.398v11.281h-11.398zm1.4102 1.4102v8.4609h8.5781v-8.4609z"/>
			<path d="m603.48 143.52h11.398v11.402h-11.398zm1.418 1.4297v8.5391h8.5508v-8.5391z"/>
			<path d="m603.48 159.36h11.398v11.402h-11.398zm1.418 1.4219v8.5469h8.5508v-8.5469z"/>
			<path d="m603.48 175.32h11.398v11.281h-11.398zm1.4102 1.4102v8.4609h8.5781v-8.4609z"/>
			<path d="m603.48 191.16h11.398v11.398h-11.398zm1.418 1.418v8.5625h8.5508v-8.5625z"/>
			<path d="m603.48 207.12h11.398v11.277h-11.398zm1.4102 1.4102v8.457h8.5781v-8.457z"/>
			<path d="m603.48 222.96h11.398v11.398h-11.398zm1.418 1.4297v8.5391h8.5508v-8.5391z"/>
			<path d="m603.48 238.92h11.398v11.277h-11.398zm1.4102 1.4062v8.4609h8.5781v-8.4609z"/>
			<path d="m603.48 254.76h11.398v11.398h-11.398zm1.418 1.418v8.5508h8.5508v-8.5508z"/>
			<path d="m603.48 270.72h11.398v11.281h-11.398zm1.4102 1.4102v8.4609h8.5781v-8.4609z"/>
			<path d="m603.48 286.56h11.398v11.281h-11.398zm1.4102 1.4102v8.4609h8.5781v-8.4609z"/>
			<path d="m603.48 302.4h11.398v11.402h-11.398zm1.418 1.4219v8.5508h8.5508v-8.5508z"/>
			<path d="m603.48 318.36h11.398v11.281h-11.398zm1.4102 1.4102v8.4609h8.5781v-8.4609z"/>
			<path d="m603.48 334.2h11.398v11.402h-11.398zm1.418 1.4219v8.5508h8.5508v-8.5508z"/>
			<path d="m603.48 350.16h11.398v11.281h-11.398zm1.4102 1.4102v8.4609h8.5781v-8.4609z"/>
			<path d="m603.48 366h11.398v11.398h-11.398zm1.418 1.4219v8.5469h8.5508v-8.5469z"/>
			<path d="m603.48 381.96h11.398v11.277h-11.398zm1.4102 1.4102v8.457h8.5781v-8.457z"/>
			<path d="m603.48 397.8h11.398v11.398h-11.398zm1.418 1.418v8.5508h8.5508v-8.5508z"/>
			<path d="m603.48 413.64h11.398v11.398h-11.398zm1.418 1.418v8.5508h8.5508v-8.5508z"/>
			<path d="m603.48 429.6h11.398v11.277h-11.398zm1.4102 1.4102v8.457h8.5781v-8.457z"/>
			<path d="m603.48 445.44h11.398v11.398h-11.398zm1.418 1.4219v8.5508h8.5508v-8.5508z"/>
			<path d="m603.48 461.4h11.398v11.281h-11.398zm1.4102 1.4102v8.4609h8.5781v-8.4609z"/>
			<path d="m603.48 477.24h11.398v11.402h-11.398zm1.418 1.4258v8.5508h8.5508v-8.5508z"/>
			<path d="m603.48 493.2h11.398v11.281h-11.398zm1.4102 1.4102v8.4609h8.5781v-8.4609z"/>
			<path d="m621.96 32.281h11.277v11.277h-11.277zm1.4102 1.4102v8.457h8.457v-8.457z"/>
			<path d="m621.96 48.121h11.277v11.398h-11.277zm1.4102 1.4102v8.5781h8.457v-8.5781z"/>
			<path d="m621.96 64.078h11.277v11.281h-11.277zm1.4102 1.4102v8.4609h8.457v-8.4609z"/>
			<path d="m621.96 79.922h11.277v11.398h-11.277zm1.4102 1.4062v8.582h8.457v-8.582z"/>
			<path d="m621.96 95.879h11.277v11.281h-11.277zm1.4102 1.4102v8.4609h8.457v-8.4609z"/>
			<path d="m621.96 111.72h11.277v11.402h-11.277zm1.4102 1.4102v8.582h8.457v-8.582z"/>
			<path d="m621.96 127.68h11.277v11.281h-11.277zm1.4102 1.4102v8.4609h8.457v-8.4609z"/>
			<path d="m621.96 143.52h11.277v11.402h-11.277zm1.4102 1.4102v8.582h8.457v-8.582z"/>
			<path d="m621.96 159.36h11.277v11.402h-11.277zm1.4102 1.4102v8.582h8.457v-8.582z"/>
			<path d="m621.96 175.32h11.277v11.281h-11.277zm1.4102 1.4102v8.4609h8.457v-8.4609z"/>
			<path d="m621.96 191.16h11.277v11.398h-11.277zm1.4102 1.4102v8.5781h8.457v-8.5781z"/>
			<path d="m621.96 207.12h11.277v11.277h-11.277zm1.4102 1.4102v8.457h8.457v-8.457z"/>
			<path d="m621.96 222.96h11.277v11.398h-11.277zm1.4102 1.4102v8.5781h8.457v-8.5781z"/>
			<path d="m621.96 238.92h11.277v11.277h-11.277zm1.4102 1.4062v8.4609h8.457v-8.4609z"/>
			<path d="m621.96 254.76h11.277v11.398h-11.277zm1.4102 1.4102v8.5781h8.457v-8.5781z"/>
			<path d="m621.96 270.72h11.277v11.281h-11.277zm1.4102 1.4102v8.4609h8.457v-8.4609z"/>
			<path d="m621.96 286.56h11.277v11.281h-11.277zm1.4102 1.4102v8.4609h8.457v-8.4609z"/>
			<path d="m621.96 302.4h11.277v11.402h-11.277zm1.4102 1.4102v8.582h8.457v-8.582z"/>
			<path d="m621.96 318.36h11.277v11.281h-11.277zm1.4102 1.4102v8.4609h8.457v-8.4609z"/>
			<path d="m621.96 334.2h11.277v11.402h-11.277zm1.4102 1.4102v8.582h8.457v-8.582z"/>
			<path d="m621.96 350.16h11.277v11.281h-11.277zm1.4102 1.4102v8.4609h8.457v-8.4609z"/>
			<path d="m621.96 366h11.277v11.398h-11.277zm1.4102 1.4102v8.5781h8.457v-8.5781z"/>
			<path d="m621.96 381.96h11.277v11.277h-11.277zm1.4102 1.4102v8.457h8.457v-8.457z"/>
			<path d="m621.96 397.8h11.277v11.398h-11.277zm1.4102 1.4102v8.5781h8.457v-8.5781z"/>
			<path d="m621.96 413.64h11.277v11.398h-11.277zm1.4102 1.4102v8.5781h8.457v-8.5781z"/>
			<path d="m621.96 429.6h11.277v11.277h-11.277zm1.4102 1.4102v8.457h8.457v-8.457z"/>
			<path d="m621.96 445.44h11.277v11.398h-11.277zm1.4102 1.4102v8.5781h8.457v-8.5781z"/>
			<path d="m621.96 461.4h11.277v11.281h-11.277zm1.4102 1.4102v8.4609h8.457v-8.4609z"/>
			<path d="m621.96 477.24h11.277v11.402h-11.277zm1.4102 1.4102v8.582h8.457v-8.582z"/>
			<path d="m621.96 493.2h11.277v11.281h-11.277zm1.4102 1.4102v8.4609h8.457v-8.4609z"/>
			<path d="m651.72 32.281h11.281v11.277h-11.281zm1.4102 1.4102v8.457h8.4609v-8.457z"/>
			<path d="m651.72 48.121h11.281v11.398h-11.281zm1.4102 1.4102v8.5781h8.4609v-8.5781z"/>
			<path d="m651.72 64.078h11.281v11.281h-11.281zm1.4102 1.4102v8.4609h8.4609v-8.4609z"/>
			<path d="m651.72 79.922h11.281v11.398h-11.281zm1.4102 1.4062v8.582h8.4609v-8.582z"/>
			<path d="m651.72 95.879h11.281v11.281h-11.281zm1.4102 1.4102v8.4609h8.4609v-8.4609z"/>
			<path d="m670.08 32.281h11.402v11.277h-11.402zm1.4102 1.4102v8.457h8.582v-8.457z"/>
			<path d="m670.08 48.121h11.402v11.398h-11.402zm1.4219 1.418v8.5508h8.5508v-8.5508z"/>
			<path d="m670.08 64.078h11.402v11.281h-11.402zm1.4102 1.4102v8.4609h8.582v-8.4609z"/>
			<path d="m670.08 79.922h11.402v11.398h-11.402zm1.4219 1.418v8.5508h8.5508v-8.5508z"/>
			<path d="m670.08 95.879h11.402v11.281h-11.402zm1.4102 1.4102v8.4609h8.582v-8.4609z"/>
			<path d="m651.72 131.64h11.281v11.281h-11.281zm1.4102 1.4102v8.4609h8.4609v-8.4609z"/>
			<path d="m651.72 147.48h11.281v11.398h-11.281zm1.4102 1.4102v8.5781h8.4609v-8.5781z"/>
			<path d="m651.72 163.44h11.281v11.277h-11.281zm1.4102 1.4102v8.457h8.4609v-8.457z"/>
			<path d="m651.72 179.28h11.281v11.398h-11.281zm1.4102 1.4102v8.5781h8.4609v-8.5781z"/>
			<path d="m651.72 195.12h11.281v11.398h-11.281zm1.4102 1.4102v8.5781h8.4609v-8.5781z"/>
			<path d="m670.08 131.64h11.402v11.281h-11.402zm1.4102 1.4102v8.4609h8.582v-8.4609z"/>
			<path d="m670.08 147.48h11.402v11.398h-11.402zm1.4219 1.418v8.5625h8.5508v-8.5625z"/>
			<path d="m670.08 163.44h11.402v11.277h-11.402zm1.4102 1.4102v8.457h8.582v-8.457z"/>
			<path d="m670.08 179.28h11.402v11.398h-11.402zm1.4219 1.418v8.5508h8.5508v-8.5508z"/>
			<path d="m670.08 195.12h11.402v11.398h-11.402zm1.4219 1.418v8.5508h8.5508v-8.5508z"/>
			<path d="m651.72 230.88h11.281v11.402h-11.281zm1.4102 1.4102v8.582h8.4609v-8.582z"/>
			<path d="m651.72 246.84h11.281v11.281h-11.281zm1.4102 1.4102v8.4609h8.4609v-8.4609z"/>
			<path d="m651.72 262.68h11.281v11.398h-11.281zm1.4102 1.4102v8.582h8.4609v-8.582z"/>
			<path d="m651.72 278.64h11.281v11.281h-11.281zm1.4102 1.4102v8.4609h8.4609v-8.4609z"/>
			<path d="m651.72 294.48h11.281v11.398h-11.281zm1.4102 1.4102v8.5781h8.4609v-8.5781z"/>
			<path d="m670.08 230.88h11.402v11.402h-11.402zm1.4219 1.4219v8.5508h8.5508v-8.5508z"/>
			<path d="m670.08 246.84h11.402v11.281h-11.402zm1.4102 1.4102v8.4609h8.582v-8.4609z"/>
			<path d="m670.08 262.68h11.402v11.398h-11.402zm1.4219 1.4219v8.5469h8.5508v-8.5469z"/>
			<path d="m670.08 278.64h11.402v11.281h-11.402zm1.4102 1.4102v8.4609h8.582v-8.4609z"/>
			<path d="m670.08 294.48h11.402v11.398h-11.402zm1.4219 1.418v8.5508h8.5508v-8.5508z"/>
			<path d="m651.72 330.24h11.281v11.402h-11.281zm1.4102 1.4102v8.582h8.4609v-8.582z"/>
			<path d="m651.72 346.2h11.281v11.281h-11.281zm1.4102 1.4102v8.4609h8.4609v-8.4609z"/>
			<path d="m651.72 362.04h11.281v11.402h-11.281zm1.4102 1.4102v8.582h8.4609v-8.582z"/>
			<path d="m651.72 377.88h11.281v11.402h-11.281zm1.4102 1.4102v8.582h8.4609v-8.582z"/>
			<path d="m651.72 393.84h11.281v11.281h-11.281zm1.4102 1.4102v8.4609h8.4609v-8.4609z"/>
			<path d="m670.08 330.24h11.402v11.402h-11.402zm1.4219 1.4219v8.5508h8.5508v-8.5508z"/>
			<path d="m670.08 346.2h11.402v11.281h-11.402zm1.4102 1.4102v8.4609h8.582v-8.4609z"/>
			<path d="m670.08 362.04h11.402v11.402h-11.402zm1.4219 1.4219v8.5508h8.5508v-8.5508z"/>
			<path d="m670.08 377.88h11.402v11.402h-11.402zm1.4219 1.4219v8.5508h8.5508v-8.5508z"/>
			<path d="m670.08 393.84h11.402v11.281h-11.402zm1.4102 1.4102v8.4609h8.582v-8.4609z"/>
			<path d="m651.72 429.6h11.281v11.277h-11.281zm1.4102 1.4102v8.457h8.4609v-8.457z"/>
			<path d="m651.72 445.44h11.281v11.398h-11.281zm1.4102 1.4102v8.5781h8.4609v-8.5781z"/>
			<path d="m651.72 461.4h11.281v11.281h-11.281zm1.4102 1.4102v8.4609h8.4609v-8.4609z"/>
			<path d="m651.72 477.24h11.281v11.402h-11.281zm1.4102 1.4102v8.582h8.4609v-8.582z"/>
			<path d="m651.72 493.2h11.281v11.281h-11.281zm1.4102 1.4102v8.4609h8.4609v-8.4609z"/>
			<path d="m670.08 429.6h11.402v11.277h-11.402zm1.4102 1.4102v8.457h8.582v-8.457z"/>
			<path d="m670.08 445.44h11.402v11.398h-11.402zm1.4219 1.4219v8.5508h8.5508v-8.5508z"/>
			<path d="m670.08 461.4h11.402v11.281h-11.402zm1.4102 1.4102v8.4609h8.582v-8.4609z"/>
			<path d="m670.08 477.24h11.402v11.402h-11.402zm1.4219 1.4258v8.5508h8.5508v-8.5508z"/>
			<path d="m670.08 493.2h11.402v11.281h-11.402zm1.4102 1.4102v8.4609h8.582v-8.4609z"/>
			<path d="m395.76 31.922h11.398v11.398h-11.398zm1.418 1.418v8.5508h8.5508v-8.5508z"/>
			<path d="m395.76 47.879h11.398v11.281h-11.398zm1.4102 1.4102v8.4609h8.5781v-8.4609z"/>
			<path d="m395.76 63.719h11.398v11.402h-11.398zm1.418 1.4219v8.5586h8.5508v-8.5586z"/>
			<path d="m395.76 79.559h11.398v11.402h-11.398zm1.418 1.4219v8.5508h8.5508v-8.5508z"/>
			<path d="m395.76 95.52h11.398v11.281h-11.398zm1.4102 1.4102v8.4609h8.5781v-8.4609z"/>
			<path d="m414.24 31.922h11.402v11.398h-11.402zm1.4219 1.418v8.5508h8.5586v-8.5508z"/>
			<path d="m414.24 47.879h11.402v11.281h-11.402zm1.4102 1.4102v8.4609h8.582v-8.4609z"/>
			<path d="m414.24 63.719h11.402v11.402h-11.402zm1.4219 1.4219v8.5586h8.5586v-8.5586z"/>
			<path d="m414.24 79.559h11.402v11.402h-11.402zm1.4219 1.4219v8.5508h8.5586v-8.5508z"/>
			<path d="m414.24 95.52h11.402v11.281h-11.402zm1.4102 1.4102v8.4609h8.582v-8.4609z"/>
			<path d="m395.76 131.28h11.398v11.277h-11.398zm1.4102 1.4102v8.457h8.5781v-8.457z"/>
			<path d="m395.76 147.12h11.398v11.398h-11.398zm1.418 1.418v8.5508h8.5508v-8.5508z"/>
			<path d="m395.76 163.08h11.398v11.281h-11.398zm1.4102 1.4102v8.4609h8.5781v-8.4609z"/>
			<path d="m395.76 178.92h11.398v11.398h-11.398zm1.418 1.418v8.5508h8.5508v-8.5508z"/>
			<path d="m395.76 194.88h11.398v11.281h-11.398zm1.4102 1.4102v8.4609h8.5781v-8.4609z"/>
			<path d="m414.24 131.28h11.402v11.277h-11.402zm1.4102 1.4102v8.457h8.582v-8.457z"/>
			<path d="m414.24 147.12h11.402v11.398h-11.402zm1.4219 1.418v8.5508h8.5586v-8.5508z"/>
			<path d="m414.24 163.08h11.402v11.281h-11.402zm1.4102 1.4102v8.4609h8.582v-8.4609z"/>
			<path d="m414.24 178.92h11.402v11.398h-11.402zm1.4219 1.418v8.5508h8.5586v-8.5508z"/>
			<path d="m414.24 194.88h11.402v11.281h-11.402zm1.4102 1.4102v8.4609h8.582v-8.4609z"/>
			<path d="m395.76 230.64h11.398v11.281h-11.398zm1.4102 1.4102v8.4609h8.5781v-8.4609z"/>
			<path d="m395.76 246.48h11.398v11.398h-11.398zm1.418 1.418v8.5508h8.5508v-8.5508z"/>
			<path d="m395.76 262.32h11.398v11.398h-11.398zm1.418 1.418v8.5508h8.5508v-8.5508z"/>
			<path d="m395.76 278.28h11.398v11.277h-11.398zm1.4102 1.4102v8.457h8.5781v-8.457z"/>
			<path d="m395.76 294.12h11.398v11.398h-11.398zm1.418 1.418v8.5508h8.5508v-8.5508z"/>
			<path d="m414.24 230.64h11.402v11.281h-11.402zm1.4102 1.4102v8.4609h8.582v-8.4609z"/>
			<path d="m414.24 246.48h11.402v11.398h-11.402zm1.4219 1.418v8.5508h8.5586v-8.5508z"/>
			<path d="m414.24 262.32h11.402v11.398h-11.402zm1.4219 1.418v8.5508h8.5586v-8.5508z"/>
			<path d="m414.24 278.28h11.402v11.277h-11.402zm1.4102 1.4102v8.457h8.582v-8.457z"/>
			<path d="m414.24 294.12h11.402v11.398h-11.402zm1.4219 1.418v8.5508h8.5586v-8.5508z"/>
			<path d="m395.76 329.88h11.398v11.402h-11.398zm1.418 1.4219v8.5508h8.5508v-8.5508z"/>
			<path d="m395.76 345.84h11.398v11.281h-11.398zm1.4102 1.4102v8.4609h8.5781v-8.4609z"/>
			<path d="m395.76 361.68h11.398v11.398h-11.398zm1.418 1.4219v8.5469h8.5508v-8.5469z"/>
			<path d="m395.76 377.64h11.398v11.281h-11.398zm1.4102 1.4102v8.4609h8.5781v-8.4609z"/>
			<path d="m395.76 393.48h11.398v11.398h-11.398zm1.418 1.418v8.5508h8.5508v-8.5508z"/>
			<path d="m414.24 329.88h11.402v11.402h-11.402zm1.4219 1.4219v8.5508h8.5586v-8.5508z"/>
			<path d="m414.24 345.84h11.402v11.281h-11.402zm1.4102 1.4102v8.4609h8.582v-8.4609z"/>
			<path d="m414.24 361.68h11.402v11.398h-11.402zm1.4219 1.4219v8.5469h8.5586v-8.5469z"/>
			<path d="m414.24 377.64h11.402v11.281h-11.402zm1.4102 1.4102v8.4609h8.582v-8.4609z"/>
			<path d="m414.24 393.48h11.402v11.398h-11.402zm1.4219 1.418v8.5508h8.5586v-8.5508z"/>
			<path d="m395.76 429.24h11.398v11.402h-11.398zm1.418 1.4219v8.5508h8.5508v-8.5508z"/>
			<path d="m395.76 445.08h11.398v11.402h-11.398zm1.418 1.4258v8.5508h8.5508v-8.5508z"/>
			<path d="m395.76 461.04h11.398v11.281h-11.398zm1.4102 1.4102v8.4609h8.5781v-8.4609z"/>
			<path d="m395.76 476.88h11.398v11.402h-11.398zm1.418 1.4258v8.5508h8.5508v-8.5508z"/>
			<path d="m395.76 492.84h11.398v11.281h-11.398zm1.4102 1.4102v8.4609h8.5781v-8.4609z"/>
			<path d="m414.24 429.24h11.402v11.402h-11.402zm1.4219 1.4219v8.5508h8.5586v-8.5508z"/>
			<path d="m414.24 445.08h11.402v11.402h-11.402zm1.4219 1.4258v8.5508h8.5586v-8.5508z"/>
			<path d="m414.24 461.04h11.402v11.281h-11.402zm1.4102 1.4102v8.4609h8.582v-8.4609z"/>
			<path d="m414.24 476.88h11.402v11.402h-11.402zm1.4219 1.4258v8.5508h8.5586v-8.5508z"/>
			<path d="m414.24 492.84h11.402v11.281h-11.402zm1.4102 1.4102v8.4609h8.582v-8.4609z"/>
		</g>
		<g fill-rule="evenodd">
			<path d="m388.44 504.12h3.5976v-472.2h-3.5976z" fill="#f00"/>
			<path d="m429.72 504.12h3.6016v-472.2h-3.6016z" fill="#00aef0"/>
			<path d="m644.16 504.12h3.6016v-472.2h-3.6016z" fill="#f00"/>
			<path d="m685.44 504.12h3.5976v-472.2h-3.5976z" fill="#00aef0"/>
		</g>
		<g fill="none" stroke="#ffbf00" stroke-linecap="round" stroke-linejoin="round" stroke-miterlimit="10" stroke-width="5.04">
			<path transform="matrix(1,0,0,-1,0,540)" d="m401.52 502.2v-460.88"/>
			<path transform="matrix(1,0,0,-1,0,540)" d="m419.88 502.2v-460.88"/>
			<path transform="matrix(1,0,0,-1,0,540)" d="m657.36 502.2v-460.88"/>
			<path transform="matrix(1,0,0,-1,0,540)" d="m675.84 502.2v-460.88"/>
			<path transform="matrix(1,0,0,-1,0,540)" d="m449.76 502.08h73.77"/>
			<path transform="matrix(1,0,0,-1,0,540)" d="m449.76 486.12h73.77"/>
			<path transform="matrix(1,0,0,-1,0,540)" d="m449.76 470.28h73.77"/>
			<path transform="matrix(1,0,0,-1,0,540)" d="m449.76 454.32h73.77"/>
			<path transform="matrix(1,0,0,-1,0,540)" d="m449.76 438.48h73.77"/>
			<path transform="matrix(1,0,0,-1,0,540)" d="m449.76 422.64h73.77"/>
			<path transform="matrix(1,0,0,-1,0,540)" d="m449.76 406.68h73.77"/>
			<path transform="matrix(1,0,0,-1,0,540)" d="m449.76 390.84h73.77"/>
			<path transform="matrix(1,0,0,-1,0,540)" d="m449.76 374.88h73.77"/>
			<path transform="matrix(1,0,0,-1,0,540)" d="m449.76 359.04h73.77"/>
			<path transform="matrix(1,0,0,-1,0,540)" d="m449.76 343.08h73.77"/>
			<path transform="matrix(1,0,0,-1,0,540)" d="m449.76 327.24h73.77"/>
			<path transform="matrix(1,0,0,-1,0,540)" d="m449.76 311.4h73.77"/>
			<path transform="matrix(1,0,0,-1,0,540)" d="m449.76 295.44h73.77"/>
			<path transform="matrix(1,0,0,-1,0,540)" d="m449.76 279.6h73.77"/>
			<path transform="matrix(1,0,0,-1,0,540)" d="m449.76 263.64h73.77"/>
			<path transform="matrix(1,0,0,-1,0,540)" d="m449.76 247.8h73.77"/>
			<path transform="matrix(1,0,0,-1,0,540)" d="m449.76 231.84h73.77"/>
			<path transform="matrix(1,0,0,-1,0,540)" d="m449.76 216h73.77"/>
			<path transform="matrix(1,0,0,-1,0,540)" d="m449.76 200.04h73.77"/>
			<path transform="matrix(1,0,0,-1,0,540)" d="m449.76 184.2h73.77"/>
			<path transform="matrix(1,0,0,-1,0,540)" d="m449.76 168.36h73.77"/>
			<path transform="matrix(1,0,0,-1,0,540)" d="m449.76 152.4h73.77"/>
			<path transform="matrix(1,0,0,-1,0,540)" d="m449.76 136.56h73.77"/>
			<path transform="matrix(1,0,0,-1,0,540)" d="m449.76 120.6h73.77"/>
			<path transform="matrix(1,0,0,-1,0,540)" d="m449.76 104.76h73.77"/>
			<path transform="matrix(1,0,0,-1,0,540)" d="m449.76 88.801h73.77"/>
			<path transform="matrix(1,0,0,-1,0,540)" d="m449.76 72.961h73.77"/>
			<path transform="matrix(1,0,0,-1,0,540)" d="m449.76 57.121h73.77"/>
			<path transform="matrix(1,0,0,-1,0,540)" d="m449.76 41.16h73.77"/>
			<path transform="matrix(1,0,0,-1,0,540)" d="m553.8 502.08h73.77"/>
			<path transform="matrix(1,0,0,-1,0,540)" d="m553.8 486.36h73.77"/>
			<path transform="matrix(1,0,0,-1,0,540)" d="m553.8 470.4h73.77"/>
			<path transform="matrix(1,0,0,-1,0,540)" d="m553.8 454.56h73.77"/>
			<path transform="matrix(1,0,0,-1,0,540)" d="m553.8 438.6h73.77"/>
			<path transform="matrix(1,0,0,-1,0,540)" d="m553.8 422.76h73.77"/>
			<path transform="matrix(1,0,0,-1,0,540)" d="m553.8 406.92h73.77"/>
			<path transform="matrix(1,0,0,-1,0,540)" d="m553.8 390.96h73.77"/>
			<path transform="matrix(1,0,0,-1,0,540)" d="m553.8 375.12h73.77"/>
			<path transform="matrix(1,0,0,-1,0,540)" d="m553.8 359.16h73.77"/>
			<path transform="matrix(1,0,0,-1,0,540)" d="m553.8 343.32h73.77"/>
			<path transform="matrix(1,0,0,-1,0,540)" d="m553.8 327.36h73.77"/>
			<path transform="matrix(1,0,0,-1,0,540)" d="m553.8 311.52h73.77"/>
			<path transform="matrix(1,0,0,-1,0,540)" d="m553.8 295.68h73.77"/>
			<path transform="matrix(1,0,0,-1,0,540)" d="m553.8 279.72h73.77"/>
			<path transform="matrix(1,0,0,-1,0,540)" d="m553.8 263.88h73.77"/>
			<path transform="matrix(1,0,0,-1,0,540)" d="m553.8 247.92h73.77"/>
			<path transform="matrix(1,0,0,-1,0,540)" d="m553.8 232.08h73.77"/>
			<path transform="matrix(1,0,0,-1,0,540)" d="m553.8 216.12h73.77"/>
			<path transform="matrix(1,0,0,-1,0,540)" d="m553.8 200.28h73.77"/>
			<path transform="matrix(1,0,0,-1,0,540)" d="m553.8 184.32h73.77"/>
			<path transform="matrix(1,0,0,-1,0,540)" d="m553.8 168.48h73.77"/>
			<path transform="matrix(1,0,0,-1,0,540)" d="m553.8 152.64h73.77"/>
			<path transform="matrix(1,0,0,-1,0,540)" d="m553.8 136.68h73.77"/>
			<path transform="matrix(1,0,0,-1,0,540)" d="m553.8 120.84h73.77"/>
			<path transform="matrix(1,0,0,-1,0,540)" d="m553.8 104.88h73.77"/>
			<path transform="matrix(1,0,0,-1,0,540)" d="m553.8 89.039h73.77"/>
			<path transform="matrix(1,0,0,-1,0,540)" d="m553.8 73.078h73.77"/>
			<path transform="matrix(1,0,0,-1,0,540)" d="m553.8 57.238h73.77"/>
			<path transform="matrix(1,0,0,-1,0,540)" d="m553.8 41.16h73.77"/>
		</g>
		<path d="m34.078 509.04h319.8v-492.36h-319.8z" fill="#bdbdbd" fill-rule="evenodd"/>
		<path d="m30.238 514.32h319.8v-492.24h-319.8z" fill="#f0f0f0" fill-rule="evenodd"/>
		<g fill-rule="evenodd">
			<path d="m95.52 32.281h11.281v11.277h-11.281zm1.4102 1.4102v8.457h8.4609v-8.457z"/>
			<path d="m95.52 48.121h11.281v11.398h-11.281zm1.4102 1.4102v8.5781h8.4609v-8.5781z"/>
			<path d="m95.52 64.078h11.281v11.281h-11.281zm1.4102 1.4102v8.4609h8.4609v-8.4609z"/>
			<path d="m95.52 79.922h11.281v11.398h-11.281zm1.4102 1.4062v8.582h8.4609v-8.582z"/>
			<path d="m95.52 95.879h11.281v11.281h-11.281zm1.4102 1.4102v8.4609h8.4609v-8.4609z"/>
			<path d="m95.52 111.72h11.281v11.402h-11.281zm1.4102 1.4102v8.582h8.4609v-8.582z"/>
			<path d="m95.52 127.68h11.281v11.281h-11.281zm1.4102 1.4102v8.4609h8.4609v-8.4609z"/>
			<path d="m95.52 143.52h11.281v11.402h-11.281zm1.4102 1.4102v8.582h8.4609v-8.582z"/>
			<path d="m95.52 159.36h11.281v11.402h-11.281zm1.4102 1.4102v8.582h8.4609v-8.582z"/>
			<path d="m95.52 175.32h11.281v11.281h-11.281zm1.4102 1.4102v8.4609h8.4609v-8.4609z"/>
			<path d="m95.52 191.16h11.281v11.398h-11.281zm1.4102 1.4102v8.5781h8.4609v-8.5781z"/>
			<path d="m95.52 207.12h11.281v11.277h-11.281zm1.4102 1.4102v8.457h8.4609v-8.457z"/>
			<path d="m95.52 222.96h11.281v11.398h-11.281zm1.4102 1.4102v8.5781h8.4609v-8.5781z"/>
			<path d="m95.52 238.92h11.281v11.277h-11.281zm1.4102 1.4062v8.4609h8.4609v-8.4609z"/>
			<path d="m95.52 254.76h11.281v11.398h-11.281zm1.4102 1.4102v8.5781h8.4609v-8.5781z"/>
			<path d="m95.52 270.72h11.281v11.281h-11.281zm1.4102 1.4102v8.4609h8.4609v-8.4609z"/>
			<path d="m95.52 286.56h11.281v11.281h-11.281zm1.4102 1.4102v8.4609h8.4609v-8.4609z"/>
			<path d="m95.52 302.4h11.281v11.402h-11.281zm1.4102 1.4102v8.582h8.4609v-8.582z"/>
			<path d="m95.52 318.36h11.281v11.281h-11.281zm1.4102 1.4102v8.4609h8.4609v-8.4609z"/>
			<path d="m95.52 334.2h11.281v11.402h-11.281zm1.4102 1.4102v8.582h8.4609v-8.582z"/>
			<path d="m95.52 350.16h11.281v11.281h-11.281zm1.4102 1.4102v8.4609h8.4609v-8.4609z"/>
			<path d="m95.52 366h11.281v11.398h-11.281zm1.4102 1.4102v8.5781h8.4609v-8.5781z"/>
			<path d="m95.52 381.96h11.281v11.277h-11.281zm1.4102 1.4102v8.457h8.4609v-8.457z"/>
			<path d="m95.52 397.8h11.281v11.398h-11.281zm1.4102 1.4102v8.5781h8.4609v-8.5781z"/>
			<path d="m95.52 413.64h11.281v11.398h-11.281zm1.4102 1.4102v8.5781h8.4609v-8.5781z"/>
			<path d="m95.52 429.6h11.281v11.277h-11.281zm1.4102 1.4102v8.457h8.4609v-8.457z"/>
			<path d="m95.52 445.44h11.281v11.398h-11.281zm1.4102 1.4102v8.5781h8.4609v-8.5781z"/>
			<path d="m95.52 461.4h11.281v11.281h-11.281zm1.4102 1.4102v8.4609h8.4609v-8.4609z"/>
			<path d="m95.52 477.24h11.281v11.402h-11.281zm1.4102 1.4102v8.582h8.4609v-8.582z"/>
			<path d="m95.52 493.2h11.281v11.281h-11.281zm1.4102 1.4102v8.4609h8.4609v-8.4609z"/>
			<path d="m113.88 32.281h11.402v11.277h-11.402zm1.4102 1.4102v8.457h8.582v-8.457z"/>
			<path d="m113.88 48.121h11.402v11.398h-11.402zm1.4219 1.418v8.5508h8.5508v-8.5508z"/>
			<path d="m113.88 64.078h11.402v11.281h-11.402zm1.4102 1.4102v8.4609h8.582v-8.4609z"/>
			<path d="m113.88 79.922h11.402v11.398h-11.402zm1.4219 1.418v8.5508h8.5508v-8.5508z"/>
			<path d="m113.88 95.879h11.402v11.281h-11.402zm1.4102 1.4102v8.4609h8.582v-8.4609z"/>
			<path d="m113.88 111.72h11.402v11.402h-11.402zm1.4219 1.4219v8.5586h8.5508v-8.5586z"/>
			<path d="m113.88 127.68h11.402v11.281h-11.402zm1.4102 1.4102v8.4609h8.582v-8.4609z"/>
			<path d="m113.88 143.52h11.402v11.402h-11.402zm1.4219 1.4297v8.5391h8.5508v-8.5391z"/>
			<path d="m113.88 159.36h11.402v11.402h-11.402zm1.4219 1.4219v8.5469h8.5508v-8.5469z"/>
			<path d="m113.88 175.32h11.402v11.281h-11.402zm1.4102 1.4102v8.4609h8.582v-8.4609z"/>
			<path d="m113.88 191.16h11.402v11.398h-11.402zm1.4219 1.418v8.5625h8.5508v-8.5625z"/>
			<path d="m113.88 207.12h11.402v11.277h-11.402zm1.4102 1.4102v8.457h8.582v-8.457z"/>
			<path d="m113.88 222.96h11.402v11.398h-11.402zm1.4219 1.4297v8.5391h8.5508v-8.5391z"/>
			<path d="m113.88 238.92h11.402v11.277h-11.402zm1.4102 1.4062v8.4609h8.582v-8.4609z"/>
			<path d="m113.88 254.76h11.402v11.398h-11.402zm1.4219 1.418v8.5508h8.5508v-8.5508z"/>
			<path d="m113.88 270.72h11.402v11.281h-11.402zm1.4102 1.4102v8.4609h8.582v-8.4609z"/>
			<path d="m113.88 286.56h11.402v11.281h-11.402zm1.4102 1.4102v8.4609h8.582v-8.4609z"/>
			<path d="m113.88 302.4h11.402v11.402h-11.402zm1.4219 1.4219v8.5508h8.5508v-8.5508z"/>
			<path d="m113.88 318.36h11.402v11.281h-11.402zm1.4102 1.4102v8.4609h8.582v-8.4609z"/>
			<path d="m113.88 334.2h11.402v11.402h-11.402zm1.4219 1.4219v8.5508h8.5508v-8.5508z"/>
			<path d="m113.88 350.16h11.402v11.281h-11.402zm1.4102 1.4102v8.4609h8.582v-8.4609z"/>
			<path d="m113.88 366h11.402v11.398h-11.402zm1.4219 1.4219v8.5469h8.5508v-8.5469z"/>
			<path d="m113.88 381.96h11.402v11.277h-11.402zm1.4102 1.4102v8.457h8.582v-8.457z"/>
			<path d="m113.88 397.8h11.402v11.398h-11.402zm1.4219 1.418v8.5508h8.5508v-8.5508z"/>
			<path d="m113.88 413.64h11.402v11.398h-11.402zm1.4219 1.418v8.5508h8.5508v-8.5508z"/>
			<path d="m113.88 429.6h11.402v11.277h-11.402zm1.4102 1.4102v8.457h8.582v-8.457z"/>
			<path d="m113.88 445.44h11.402v11.398h-11.402zm1.4219 1.4219v8.5508h8.5508v-8.5508z"/>
			<path d="m113.88 461.4h11.402v11.281h-11.402zm1.4102 1.4102v8.4609h8.582v-8.4609z"/>
			<path d="m113.88 477.24h11.402v11.402h-11.402zm1.4219 1.4258v8.5508h8.5508v-8.5508z"/>
			<path d="m113.88 493.2h11.402v11.281h-11.402zm1.4102 1.4102v8.4609h8.582v-8.4609z"/>
			<path d="m132.36 32.281h11.281v11.277h-11.281zm1.4102 1.4102v8.457h8.4609v-8.457z"/>
			<path d="m132.36 48.121h11.281v11.398h-11.281zm1.4102 1.4102v8.5781h8.4609v-8.5781z"/>
			<path d="m132.36 64.078h11.281v11.281h-11.281zm1.4102 1.4102v8.4609h8.4609v-8.4609z"/>
			<path d="m132.36 79.922h11.281v11.398h-11.281zm1.4102 1.4062v8.582h8.4609v-8.582z"/>
			<path d="m132.36 95.879h11.281v11.281h-11.281zm1.4102 1.4102v8.4609h8.4609v-8.4609z"/>
			<path d="m132.36 111.72h11.281v11.402h-11.281zm1.4102 1.4102v8.582h8.4609v-8.582z"/>
			<path d="m132.36 127.68h11.281v11.281h-11.281zm1.4102 1.4102v8.4609h8.4609v-8.4609z"/>
			<path d="m132.36 143.52h11.281v11.402h-11.281zm1.4102 1.4102v8.582h8.4609v-8.582z"/>
			<path d="m132.36 159.36h11.281v11.402h-11.281zm1.4102 1.4102v8.582h8.4609v-8.582z"/>
			<path d="m132.36 175.32h11.281v11.281h-11.281zm1.4102 1.4102v8.4609h8.4609v-8.4609z"/>
			<path d="m132.36 191.16h11.281v11.398h-11.281zm1.4102 1.4102v8.5781h8.4609v-8.5781z"/>
			<path d="m132.36 207.12h11.281v11.277h-11.281zm1.4102 1.4102v8.457h8.4609v-8.457z"/>
			<path d="m132.36 222.96h11.281v11.398h-11.281zm1.4102 1.4102v8.5781h8.4609v-8.5781z"/>
			<path d="m132.36 238.92h11.281v11.277h-11.281zm1.4102 1.4062v8.4609h8.4609v-8.4609z"/>
			<path d="m132.36 254.76h11.281v11.398h-11.281zm1.4102 1.4102v8.5781h8.4609v-8.5781z"/>
			<path d="m132.36 270.72h11.281v11.281h-11.281zm1.4102 1.4102v8.4609h8.4609v-8.4609z"/>
			<path d="m132.36 286.56h11.281v11.281h-11.281zm1.4102 1.4102v8.4609h8.4609v-8.4609z"/>
			<path d="m132.36 302.4h11.281v11.402h-11.281zm1.4102 1.4102v8.582h8.4609v-8.582z"/>
			<path d="m132.36 318.36h11.281v11.281h-11.281zm1.4102 1.4102v8.4609h8.4609v-8.4609z"/>
			<path d="m132.36 334.2h11.281v11.402h-11.281zm1.4102 1.4102v8.582h8.4609v-8.582z"/>
			<path d="m132.36 350.16h11.281v11.281h-11.281zm1.4102 1.4102v8.4609h8.4609v-8.4609z"/>
			<path d="m132.36 366h11.281v11.398h-11.281zm1.4102 1.4102v8.5781h8.4609v-8.5781z"/>
			<path d="m132.36 381.96h11.281v11.277h-11.281zm1.4102 1.4102v8.457h8.4609v-8.457z"/>
			<path d="m132.36 397.8h11.281v11.398h-11.281zm1.4102 1.4102v8.5781h8.4609v-8.5781z"/>
			<path d="m132.36 413.64h11.281v11.398h-11.281zm1.4102 1.4102v8.5781h8.4609v-8.5781z"/>
			<path d="m132.36 429.6h11.281v11.277h-11.281zm1.4102 1.4102v8.457h8.4609v-8.457z"/>
			<path d="m132.36 445.44h11.281v11.398h-11.281zm1.4102 1.4102v8.5781h8.4609v-8.5781z"/>
			<path d="m132.36 461.4h11.281v11.281h-11.281zm1.4102 1.4102v8.4609h8.4609v-8.4609z"/>
			<path d="m132.36 477.24h11.281v11.402h-11.281zm1.4102 1.4102v8.582h8.4609v-8.582z"/>
			<path d="m132.36 493.2h11.281v11.281h-11.281zm1.4102 1.4102v8.4609h8.4609v-8.4609z"/>
			<path d="m150.84 32.281h11.281v11.277h-11.281zm1.4102 1.4102v8.457h8.4609v-8.457z"/>
			<path d="m150.84 48.121h11.281v11.398h-11.281zm1.4102 1.4102v8.5781h8.4609v-8.5781z"/>
			<path d="m150.84 64.078h11.281v11.281h-11.281zm1.4102 1.4102v8.4609h8.4609v-8.4609z"/>
			<path d="m150.84 79.922h11.281v11.398h-11.281zm1.4102 1.4062v8.582h8.4609v-8.582z"/>
			<path d="m150.84 95.879h11.281v11.281h-11.281zm1.4102 1.4102v8.4609h8.4609v-8.4609z"/>
			<path d="m150.84 111.72h11.281v11.402h-11.281zm1.4102 1.4102v8.582h8.4609v-8.582z"/>
			<path d="m150.84 127.68h11.281v11.281h-11.281zm1.4102 1.4102v8.4609h8.4609v-8.4609z"/>
			<path d="m150.84 143.52h11.281v11.402h-11.281zm1.4102 1.4102v8.582h8.4609v-8.582z"/>
			<path d="m150.84 159.36h11.281v11.402h-11.281zm1.4102 1.4102v8.582h8.4609v-8.582z"/>
			<path d="m150.84 175.32h11.281v11.281h-11.281zm1.4102 1.4102v8.4609h8.4609v-8.4609z"/>
			<path d="m150.84 191.16h11.281v11.398h-11.281zm1.4102 1.4102v8.5781h8.4609v-8.5781z"/>
			<path d="m150.84 207.12h11.281v11.277h-11.281zm1.4102 1.4102v8.457h8.4609v-8.457z"/>
			<path d="m150.84 222.96h11.281v11.398h-11.281zm1.4102 1.4102v8.5781h8.4609v-8.5781z"/>
			<path d="m150.84 238.92h11.281v11.277h-11.281zm1.4102 1.4062v8.4609h8.4609v-8.4609z"/>
			<path d="m150.84 254.76h11.281v11.398h-11.281zm1.4102 1.4102v8.5781h8.4609v-8.5781z"/>
			<path d="m150.84 270.72h11.281v11.281h-11.281zm1.4102 1.4102v8.4609h8.4609v-8.4609z"/>
			<path d="m150.84 286.56h11.281v11.281h-11.281zm1.4102 1.4102v8.4609h8.4609v-8.4609z"/>
			<path d="m150.84 302.4h11.281v11.402h-11.281zm1.4102 1.4102v8.582h8.4609v-8.582z"/>
			<path d="m150.84 318.36h11.281v11.281h-11.281zm1.4102 1.4102v8.4609h8.4609v-8.4609z"/>
			<path d="m150.84 334.2h11.281v11.402h-11.281zm1.4102 1.4102v8.582h8.4609v-8.582z"/>
			<path d="m150.84 350.16h11.281v11.281h-11.281zm1.4102 1.4102v8.4609h8.4609v-8.4609z"/>
			<path d="m150.84 366h11.281v11.398h-11.281zm1.4102 1.4102v8.5781h8.4609v-8.5781z"/>
			<path d="m150.84 381.96h11.281v11.277h-11.281zm1.4102 1.4102v8.457h8.4609v-8.457z"/>
			<path d="m150.84 397.8h11.281v11.398h-11.281zm1.4102 1.4102v8.5781h8.4609v-8.5781z"/>
			<path d="m150.84 413.64h11.281v11.398h-11.281zm1.4102 1.4102v8.5781h8.4609v-8.5781z"/>
			<path d="m150.84 429.6h11.281v11.277h-11.281zm1.4102 1.4102v8.457h8.4609v-8.457z"/>
			<path d="m150.84 445.44h11.281v11.398h-11.281zm1.4102 1.4102v8.5781h8.4609v-8.5781z"/>
			<path d="m150.84 461.4h11.281v11.281h-11.281zm1.4102 1.4102v8.4609h8.4609v-8.4609z"/>
			<path d="m150.84 477.24h11.281v11.402h-11.281zm1.4102 1.4102v8.582h8.4609v-8.582z"/>
			<path d="m150.84 493.2h11.281v11.281h-11.281zm1.4102 1.4102v8.4609h8.4609v-8.4609z"/>
			<path d="m169.2 32.281h11.402v11.277h-11.402zm1.4102 1.4102v8.457h8.582v-8.457z"/>
			<path d="m169.2 48.121h11.402v11.398h-11.402zm1.4219 1.418v8.5508h8.5508v-8.5508z"/>
			<path d="m169.2 64.078h11.402v11.281h-11.402zm1.4102 1.4102v8.4609h8.582v-8.4609z"/>
			<path d="m169.2 79.922h11.402v11.398h-11.402zm1.4219 1.418v8.5508h8.5508v-8.5508z"/>
			<path d="m169.2 95.879h11.402v11.281h-11.402zm1.4102 1.4102v8.4609h8.582v-8.4609z"/>
			<path d="m169.2 111.72h11.402v11.402h-11.402zm1.4219 1.4219v8.5586h8.5508v-8.5586z"/>
			<path d="m169.2 127.68h11.402v11.281h-11.402zm1.4102 1.4102v8.4609h8.582v-8.4609z"/>
			<path d="m169.2 143.52h11.402v11.402h-11.402zm1.4219 1.4297v8.5391h8.5508v-8.5391z"/>
			<path d="m169.2 159.36h11.402v11.402h-11.402zm1.4219 1.4219v8.5469h8.5508v-8.5469z"/>
			<path d="m169.2 175.32h11.402v11.281h-11.402zm1.4102 1.4102v8.4609h8.582v-8.4609z"/>
			<path d="m169.2 191.16h11.402v11.398h-11.402zm1.4219 1.418v8.5625h8.5508v-8.5625z"/>
			<path d="m169.2 207.12h11.402v11.277h-11.402zm1.4102 1.4102v8.457h8.582v-8.457z"/>
			<path d="m169.2 222.96h11.402v11.398h-11.402zm1.4219 1.4297v8.5391h8.5508v-8.5391z"/>
			<path d="m169.2 238.92h11.402v11.277h-11.402zm1.4102 1.4062v8.4609h8.582v-8.4609z"/>
			<path d="m169.2 254.76h11.402v11.398h-11.402zm1.4219 1.418v8.5508h8.5508v-8.5508z"/>
			<path d="m169.2 270.72h11.402v11.281h-11.402zm1.4102 1.4102v8.4609h8.582v-8.4609z"/>
			<path d="m169.2 286.56h11.402v11.281h-11.402zm1.4102 1.4102v8.4609h8.582v-8.4609z"/>
			<path d="m169.2 302.4h11.402v11.402h-11.402zm1.4219 1.4219v8.5508h8.5508v-8.5508z"/>
			<path d="m169.2 318.36h11.402v11.281h-11.402zm1.4102 1.4102v8.4609h8.582v-8.4609z"/>
			<path d="m169.2 334.2h11.402v11.402h-11.402zm1.4219 1.4219v8.5508h8.5508v-8.5508z"/>
			<path d="m169.2 350.16h11.402v11.281h-11.402zm1.4102 1.4102v8.4609h8.582v-8.4609z"/>
			<path d="m169.2 366h11.402v11.398h-11.402zm1.4219 1.4219v8.5469h8.5508v-8.5469z"/>
			<path d="m169.2 381.96h11.402v11.277h-11.402zm1.4102 1.4102v8.457h8.582v-8.457z"/>
			<path d="m169.2 397.8h11.402v11.398h-11.402zm1.4219 1.418v8.5508h8.5508v-8.5508z"/>
			<path d="m169.2 413.64h11.402v11.398h-11.402zm1.4219 1.418v8.5508h8.5508v-8.5508z"/>
			<path d="m169.2 429.6h11.402v11.277h-11.402zm1.4102 1.4102v8.457h8.582v-8.457z"/>
			<path d="m169.2 445.44h11.402v11.398h-11.402zm1.4219 1.4219v8.5508h8.5508v-8.5508z"/>
			<path d="m169.2 461.4h11.402v11.281h-11.402zm1.4102 1.4102v8.4609h8.582v-8.4609z"/>
			<path d="m169.2 477.24h11.402v11.402h-11.402zm1.4219 1.4258v8.5508h8.5508v-8.5508z"/>
			<path d="m169.2 493.2h11.402v11.281h-11.402zm1.4102 1.4102v8.4609h8.582v-8.4609z"/>
			<path d="m199.56 32.281h11.402v11.277h-11.402zm1.4102 1.4102v8.457h8.582v-8.457z"/>
			<path d="m199.56 48.121h11.402v11.398h-11.402zm1.4219 1.418v8.5508h8.5508v-8.5508z"/>
			<path d="m199.56 64.078h11.402v11.281h-11.402zm1.4102 1.4102v8.4609h8.582v-8.4609z"/>
			<path d="m199.56 79.922h11.402v11.398h-11.402zm1.4219 1.418v8.5508h8.5508v-8.5508z"/>
			<path d="m199.56 95.879h11.402v11.281h-11.402zm1.4102 1.4102v8.4609h8.582v-8.4609z"/>
			<path d="m199.56 111.72h11.402v11.402h-11.402zm1.4219 1.4219v8.5586h8.5508v-8.5586z"/>
			<path d="m199.56 127.68h11.402v11.281h-11.402zm1.4102 1.4102v8.4609h8.582v-8.4609z"/>
			<path d="m199.56 143.52h11.402v11.402h-11.402zm1.4219 1.4297v8.5391h8.5508v-8.5391z"/>
			<path d="m199.56 159.36h11.402v11.402h-11.402zm1.4219 1.4219v8.5469h8.5508v-8.5469z"/>
			<path d="m199.56 175.32h11.402v11.281h-11.402zm1.4102 1.4102v8.4609h8.582v-8.4609z"/>
			<path d="m199.56 191.16h11.402v11.398h-11.402zm1.4219 1.418v8.5625h8.5508v-8.5625z"/>
			<path d="m199.56 207.12h11.402v11.277h-11.402zm1.4102 1.4102v8.457h8.582v-8.457z"/>
			<path d="m199.56 222.96h11.402v11.398h-11.402zm1.4219 1.4297v8.5391h8.5508v-8.5391z"/>
			<path d="m199.56 238.92h11.402v11.277h-11.402zm1.4102 1.4062v8.4609h8.582v-8.4609z"/>
			<path d="m199.56 254.76h11.402v11.398h-11.402zm1.4219 1.418v8.5508h8.5508v-8.5508z"/>
			<path d="m199.56 270.72h11.402v11.281h-11.402zm1.4102 1.4102v8.4609h8.582v-8.4609z"/>
			<path d="m199.56 286.56h11.402v11.281h-11.402zm1.4102 1.4102v8.4609h8.582v-8.4609z"/>
			<path d="m199.56 302.4h11.402v11.402h-11.402zm1.4219 1.4219v8.5508h8.5508v-8.5508z"/>
			<path d="m199.56 318.36h11.402v11.281h-11.402zm1.4102 1.4102v8.4609h8.582v-8.4609z"/>
			<path d="m199.56 334.2h11.402v11.402h-11.402zm1.4219 1.4219v8.5508h8.5508v-8.5508z"/>
			<path d="m199.56 350.16h11.402v11.281h-11.402zm1.4102 1.4102v8.4609h8.582v-8.4609z"/>
			<path d="m199.56 366h11.402v11.398h-11.402zm1.4219 1.4219v8.5469h8.5508v-8.5469z"/>
			<path d="m199.56 381.96h11.402v11.277h-11.402zm1.4102 1.4102v8.457h8.582v-8.457z"/>
			<path d="m199.56 397.8h11.402v11.398h-11.402zm1.4219 1.418v8.5508h8.5508v-8.5508z"/>
			<path d="m199.56 413.64h11.402v11.398h-11.402zm1.4219 1.418v8.5508h8.5508v-8.5508z"/>
			<path d="m199.56 429.6h11.402v11.277h-11.402zm1.4102 1.4102v8.457h8.582v-8.457z"/>
			<path d="m199.56 445.44h11.402v11.398h-11.402zm1.4219 1.4219v8.5508h8.5508v-8.5508z"/>
			<path d="m199.56 461.4h11.402v11.281h-11.402zm1.4102 1.4102v8.4609h8.582v-8.4609z"/>
			<path d="m199.56 477.24h11.402v11.402h-11.402zm1.4219 1.4258v8.5508h8.5508v-8.5508z"/>
			<path d="m199.56 493.2h11.402v11.281h-11.402zm1.4102 1.4102v8.4609h8.582v-8.4609z"/>
			<path d="m218.04 32.281h11.281v11.277h-11.281zm1.4102 1.4102v8.457h8.4609v-8.457z"/>
			<path d="m218.04 48.121h11.281v11.398h-11.281zm1.4102 1.4102v8.5781h8.4609v-8.5781z"/>
			<path d="m218.04 64.078h11.281v11.281h-11.281zm1.4102 1.4102v8.4609h8.4609v-8.4609z"/>
			<path d="m218.04 79.922h11.281v11.398h-11.281zm1.4102 1.4062v8.582h8.4609v-8.582z"/>
			<path d="m218.04 95.879h11.281v11.281h-11.281zm1.4102 1.4102v8.4609h8.4609v-8.4609z"/>
			<path d="m218.04 111.72h11.281v11.402h-11.281zm1.4102 1.4102v8.582h8.4609v-8.582z"/>
			<path d="m218.04 127.68h11.281v11.281h-11.281zm1.4102 1.4102v8.4609h8.4609v-8.4609z"/>
			<path d="m218.04 143.52h11.281v11.402h-11.281zm1.4102 1.4102v8.582h8.4609v-8.582z"/>
			<path d="m218.04 159.36h11.281v11.402h-11.281zm1.4102 1.4102v8.582h8.4609v-8.582z"/>
			<path d="m218.04 175.32h11.281v11.281h-11.281zm1.4102 1.4102v8.4609h8.4609v-8.4609z"/>
			<path d="m218.04 191.16h11.281v11.398h-11.281zm1.4102 1.4102v8.5781h8.4609v-8.5781z"/>
			<path d="m218.04 207.12h11.281v11.277h-11.281zm1.4102 1.4102v8.457h8.4609v-8.457z"/>
			<path d="m218.04 222.96h11.281v11.398h-11.281zm1.4102 1.4102v8.5781h8.4609v-8.5781z"/>
			<path d="m218.04 238.92h11.281v11.277h-11.281zm1.4102 1.4062v8.4609h8.4609v-8.4609z"/>
			<path d="m218.04 254.76h11.281v11.398h-11.281zm1.4102 1.4102v8.5781h8.4609v-8.5781z"/>
			<path d="m218.04 270.72h11.281v11.281h-11.281zm1.4102 1.4102v8.4609h8.4609v-8.4609z"/>
			<path d="m218.04 286.56h11.281v11.281h-11.281zm1.4102 1.4102v8.4609h8.4609v-8.4609z"/>
			<path d="m218.04 302.4h11.281v11.402h-11.281zm1.4102 1.4102v8.582h8.4609v-8.582z"/>
			<path d="m218.04 318.36h11.281v11.281h-11.281zm1.4102 1.4102v8.4609h8.4609v-8.4609z"/>
			<path d="m218.04 334.2h11.281v11.402h-11.281zm1.4102 1.4102v8.582h8.4609v-8.582z"/>
			<path d="m218.04 350.16h11.281v11.281h-11.281zm1.4102 1.4102v8.4609h8.4609v-8.4609z"/>
			<path d="m218.04 366h11.281v11.398h-11.281zm1.4102 1.4102v8.5781h8.4609v-8.5781z"/>
			<path d="m218.04 381.96h11.281v11.277h-11.281zm1.4102 1.4102v8.457h8.4609v-8.457z"/>
			<path d="m218.04 397.8h11.281v11.398h-11.281zm1.4102 1.4102v8.5781h8.4609v-8.5781z"/>
			<path d="m218.04 413.64h11.281v11.398h-11.281zm1.4102 1.4102v8.5781h8.4609v-8.5781z"/>
			<path d="m218.04 429.6h11.281v11.277h-11.281zm1.4102 1.4102v8.457h8.4609v-8.457z"/>
			<path d="m218.04 445.44h11.281v11.398h-11.281zm1.4102 1.4102v8.5781h8.4609v-8.5781z"/>
			<path d="m218.04 461.4h11.281v11.281h-11.281zm1.4102 1.4102v8.4609h8.4609v-8.4609z"/>
			<path d="m218.04 477.24h11.281v11.402h-11.281zm1.4102 1.4102v8.582h8.4609v-8.582z"/>
			<path d="m218.04 493.2h11.281v11.281h-11.281zm1.4102 1.4102v8.4609h8.4609v-8.4609z"/>
			<path d="m236.52 32.281h11.281v11.277h-11.281zm1.4102 1.4102v8.457h8.4609v-8.457z"/>
			<path d="m236.52 48.121h11.281v11.398h-11.281zm1.4102 1.4102v8.5781h8.4609v-8.5781z"/>
			<path d="m236.52 64.078h11.281v11.281h-11.281zm1.4102 1.4102v8.4609h8.4609v-8.4609z"/>
			<path d="m236.52 79.922h11.281v11.398h-11.281zm1.4102 1.4062v8.582h8.4609v-8.582z"/>
			<path d="m236.52 95.879h11.281v11.281h-11.281zm1.4102 1.4102v8.4609h8.4609v-8.4609z"/>
			<path d="m236.52 111.72h11.281v11.402h-11.281zm1.4102 1.4102v8.582h8.4609v-8.582z"/>
			<path d="m236.52 127.68h11.281v11.281h-11.281zm1.4102 1.4102v8.4609h8.4609v-8.4609z"/>
			<path d="m236.52 143.52h11.281v11.402h-11.281zm1.4102 1.4102v8.582h8.4609v-8.582z"/>
			<path d="m236.52 159.36h11.281v11.402h-11.281zm1.4102 1.4102v8.582h8.4609v-8.582z"/>
			<path d="m236.52 175.32h11.281v11.281h-11.281zm1.4102 1.4102v8.4609h8.4609v-8.4609z"/>
			<path d="m236.52 191.16h11.281v11.398h-11.281zm1.4102 1.4102v8.5781h8.4609v-8.5781z"/>
			<path d="m236.52 207.12h11.281v11.277h-11.281zm1.4102 1.4102v8.457h8.4609v-8.457z"/>
			<path d="m236.52 222.96h11.281v11.398h-11.281zm1.4102 1.4102v8.5781h8.4609v-8.5781z"/>
			<path d="m236.52 238.92h11.281v11.277h-11.281zm1.4102 1.4062v8.4609h8.4609v-8.4609z"/>
			<path d="m236.52 254.76h11.281v11.398h-11.281zm1.4102 1.4102v8.5781h8.4609v-8.5781z"/>
			<path d="m236.52 270.72h11.281v11.281h-11.281zm1.4102 1.4102v8.4609h8.4609v-8.4609z"/>
			<path d="m236.52 286.56h11.281v11.281h-11.281zm1.4102 1.4102v8.4609h8.4609v-8.4609z"/>
			<path d="m236.52 302.4h11.281v11.402h-11.281zm1.4102 1.4102v8.582h8.4609v-8.582z"/>
			<path d="m236.52 318.36h11.281v11.281h-11.281zm1.4102 1.4102v8.4609h8.4609v-8.4609z"/>
			<path d="m236.52 334.2h11.281v11.402h-11.281zm1.4102 1.4102v8.582h8.4609v-8.582z"/>
			<path d="m236.52 350.16h11.281v11.281h-11.281zm1.4102 1.4102v8.4609h8.4609v-8.4609z"/>
			<path d="m236.52 366h11.281v11.398h-11.281zm1.4102 1.4102v8.5781h8.4609v-8.5781z"/>
			<path d="m236.52 381.96h11.281v11.277h-11.281zm1.4102 1.4102v8.457h8.4609v-8.457z"/>
			<path d="m236.52 397.8h11.281v11.398h-11.281zm1.4102 1.4102v8.5781h8.4609v-8.5781z"/>
			<path d="m236.52 413.64h11.281v11.398h-11.281zm1.4102 1.4102v8.5781h8.4609v-8.5781z"/>
			<path d="m236.52 429.6h11.281v11.277h-11.281zm1.4102 1.4102v8.457h8.4609v-8.457z"/>
			<path d="m236.52 445.44h11.281v11.398h-11.281zm1.4102 1.4102v8.5781h8.4609v-8.5781z"/>
			<path d="m236.52 461.4h11.281v11.281h-11.281zm1.4102 1.4102v8.4609h8.4609v-8.4609z"/>
			<path d="m236.52 477.24h11.281v11.402h-11.281zm1.4102 1.4102v8.582h8.4609v-8.582z"/>
			<path d="m236.52 493.2h11.281v11.281h-11.281zm1.4102 1.4102v8.4609h8.4609v-8.4609z"/>
			<path d="m254.88 32.281h11.402v11.277h-11.402zm1.4102 1.4102v8.457h8.582v-8.457z"/>
			<path d="m254.88 48.121h11.402v11.398h-11.402zm1.4219 1.418v8.5508h8.5508v-8.5508z"/>
			<path d="m254.88 64.078h11.402v11.281h-11.402zm1.4102 1.4102v8.4609h8.582v-8.4609z"/>
			<path d="m254.88 79.922h11.402v11.398h-11.402zm1.4219 1.418v8.5508h8.5508v-8.5508z"/>
			<path d="m254.88 95.879h11.402v11.281h-11.402zm1.4102 1.4102v8.4609h8.582v-8.4609z"/>
			<path d="m254.88 111.72h11.402v11.402h-11.402zm1.4219 1.4219v8.5586h8.5508v-8.5586z"/>
			<path d="m254.88 127.68h11.402v11.281h-11.402zm1.4102 1.4102v8.4609h8.582v-8.4609z"/>
			<path d="m254.88 143.52h11.402v11.402h-11.402zm1.4219 1.4297v8.5391h8.5508v-8.5391z"/>
			<path d="m254.88 159.36h11.402v11.402h-11.402zm1.4219 1.4219v8.5469h8.5508v-8.5469z"/>
			<path d="m254.88 175.32h11.402v11.281h-11.402zm1.4102 1.4102v8.4609h8.582v-8.4609z"/>
			<path d="m254.88 191.16h11.402v11.398h-11.402zm1.4219 1.418v8.5625h8.5508v-8.5625z"/>
			<path d="m254.88 207.12h11.402v11.277h-11.402zm1.4102 1.4102v8.457h8.582v-8.457z"/>
			<path d="m254.88 222.96h11.402v11.398h-11.402zm1.4219 1.4297v8.5391h8.5508v-8.5391z"/>
			<path d="m254.88 238.92h11.402v11.277h-11.402zm1.4102 1.4062v8.4609h8.582v-8.4609z"/>
			<path d="m254.88 254.76h11.402v11.398h-11.402zm1.4219 1.418v8.5508h8.5508v-8.5508z"/>
			<path d="m254.88 270.72h11.402v11.281h-11.402zm1.4102 1.4102v8.4609h8.582v-8.4609z"/>
			<path d="m254.88 286.56h11.402v11.281h-11.402zm1.4102 1.4102v8.4609h8.582v-8.4609z"/>
			<path d="m254.88 302.4h11.402v11.402h-11.402zm1.4219 1.4219v8.5508h8.5508v-8.5508z"/>
			<path d="m254.88 318.36h11.402v11.281h-11.402zm1.4102 1.4102v8.4609h8.582v-8.4609z"/>
			<path d="m254.88 334.2h11.402v11.402h-11.402zm1.4219 1.4219v8.5508h8.5508v-8.5508z"/>
			<path d="m254.88 350.16h11.402v11.281h-11.402zm1.4102 1.4102v8.4609h8.582v-8.4609z"/>
			<path d="m254.88 366h11.402v11.398h-11.402zm1.4219 1.4219v8.5469h8.5508v-8.5469z"/>
			<path d="m254.88 381.96h11.402v11.277h-11.402zm1.4102 1.4102v8.457h8.582v-8.457z"/>
			<path d="m254.88 397.8h11.402v11.398h-11.402zm1.4219 1.418v8.5508h8.5508v-8.5508z"/>
			<path d="m254.88 413.64h11.402v11.398h-11.402zm1.4219 1.418v8.5508h8.5508v-8.5508z"/>
			<path d="m254.88 429.6h11.402v11.277h-11.402zm1.4102 1.4102v8.457h8.582v-8.457z"/>
			<path d="m254.88 445.44h11.402v11.398h-11.402zm1.4219 1.4219v8.5508h8.5508v-8.5508z"/>
			<path d="m254.88 461.4h11.402v11.281h-11.402zm1.4102 1.4102v8.4609h8.582v-8.4609z"/>
			<path d="m254.88 477.24h11.402v11.402h-11.402zm1.4219 1.4258v8.5508h8.5508v-8.5508z"/>
			<path d="m254.88 493.2h11.402v11.281h-11.402zm1.4102 1.4102v8.4609h8.582v-8.4609z"/>
			<path d="m273.36 32.281h11.281v11.277h-11.281zm1.4102 1.4102v8.457h8.4609v-8.457z"/>
			<path d="m273.36 48.121h11.281v11.398h-11.281zm1.4102 1.4102v8.5781h8.4609v-8.5781z"/>
			<path d="m273.36 64.078h11.281v11.281h-11.281zm1.4102 1.4102v8.4609h8.4609v-8.4609z"/>
			<path d="m273.36 79.922h11.281v11.398h-11.281zm1.4102 1.4062v8.582h8.4609v-8.582z"/>
			<path d="m273.36 95.879h11.281v11.281h-11.281zm1.4102 1.4102v8.4609h8.4609v-8.4609z"/>
			<path d="m273.36 111.72h11.281v11.402h-11.281zm1.4102 1.4102v8.582h8.4609v-8.582z"/>
			<path d="m273.36 127.68h11.281v11.281h-11.281zm1.4102 1.4102v8.4609h8.4609v-8.4609z"/>
			<path d="m273.36 143.52h11.281v11.402h-11.281zm1.4102 1.4102v8.582h8.4609v-8.582z"/>
			<path d="m273.36 159.36h11.281v11.402h-11.281zm1.4102 1.4102v8.582h8.4609v-8.582z"/>
			<path d="m273.36 175.32h11.281v11.281h-11.281zm1.4102 1.4102v8.4609h8.4609v-8.4609z"/>
			<path d="m273.36 191.16h11.281v11.398h-11.281zm1.4102 1.4102v8.5781h8.4609v-8.5781z"/>
			<path d="m273.36 207.12h11.281v11.277h-11.281zm1.4102 1.4102v8.457h8.4609v-8.457z"/>
			<path d="m273.36 222.96h11.281v11.398h-11.281zm1.4102 1.4102v8.5781h8.4609v-8.5781z"/>
			<path d="m273.36 238.92h11.281v11.277h-11.281zm1.4102 1.4062v8.4609h8.4609v-8.4609z"/>
			<path d="m273.36 254.76h11.281v11.398h-11.281zm1.4102 1.4102v8.5781h8.4609v-8.5781z"/>
			<path d="m273.36 270.72h11.281v11.281h-11.281zm1.4102 1.4102v8.4609h8.4609v-8.4609z"/>
			<path d="m273.36 286.56h11.281v11.281h-11.281zm1.4102 1.4102v8.4609h8.4609v-8.4609z"/>
			<path d="m273.36 302.4h11.281v11.402h-11.281zm1.4102 1.4102v8.582h8.4609v-8.582z"/>
			<path d="m273.36 318.36h11.281v11.281h-11.281zm1.4102 1.4102v8.4609h8.4609v-8.4609z"/>
			<path d="m273.36 334.2h11.281v11.402h-11.281zm1.4102 1.4102v8.582h8.4609v-8.582z"/>
			<path d="m273.36 350.16h11.281v11.281h-11.281zm1.4102 1.4102v8.4609h8.4609v-8.4609z"/>
			<path d="m273.36 366h11.281v11.398h-11.281zm1.4102 1.4102v8.5781h8.4609v-8.5781z"/>
			<path d="m273.36 381.96h11.281v11.277h-11.281zm1.4102 1.4102v8.457h8.4609v-8.457z"/>
			<path d="m273.36 397.8h11.281v11.398h-11.281zm1.4102 1.4102v8.5781h8.4609v-8.5781z"/>
			<path d="m273.36 413.64h11.281v11.398h-11.281zm1.4102 1.4102v8.5781h8.4609v-8.5781z"/>
			<path d="m273.36 429.6h11.281v11.277h-11.281zm1.4102 1.4102v8.457h8.4609v-8.457z"/>
			<path d="m273.36 445.44h11.281v11.398h-11.281zm1.4102 1.4102v8.5781h8.4609v-8.5781z"/>
			<path d="m273.36 461.4h11.281v11.281h-11.281zm1.4102 1.4102v8.4609h8.4609v-8.4609z"/>
			<path d="m273.36 477.24h11.281v11.402h-11.281zm1.4102 1.4102v8.582h8.4609v-8.582z"/>
			<path d="m273.36 493.2h11.281v11.281h-11.281zm1.4102 1.4102v8.4609h8.4609v-8.4609z"/>
			<path d="m303.12 32.281h11.398v11.277h-11.398zm1.4102 1.4102v8.457h8.5781v-8.457z"/>
			<path d="m303.12 48.121h11.398v11.398h-11.398zm1.418 1.418v8.5508h8.5508v-8.5508z"/>
			<path d="m303.12 64.078h11.398v11.281h-11.398zm1.4102 1.4102v8.4609h8.5781v-8.4609z"/>
			<path d="m303.12 79.922h11.398v11.398h-11.398zm1.418 1.418v8.5508h8.5508v-8.5508z"/>
			<path d="m303.12 95.879h11.398v11.281h-11.398zm1.4102 1.4102v8.4609h8.5781v-8.4609z"/>
			<path d="m321.6 32.281h11.277v11.277h-11.277zm1.4102 1.4102v8.457h8.457v-8.457z"/>
			<path d="m321.6 48.121h11.277v11.398h-11.277zm1.4102 1.4102v8.5781h8.457v-8.5781z"/>
			<path d="m321.6 64.078h11.277v11.281h-11.277zm1.4102 1.4102v8.4609h8.457v-8.4609z"/>
			<path d="m321.6 79.922h11.277v11.398h-11.277zm1.4102 1.4062v8.582h8.457v-8.582z"/>
			<path d="m321.6 95.879h11.277v11.281h-11.277zm1.4102 1.4102v8.4609h8.457v-8.4609z"/>
			<path d="m303.12 131.64h11.398v11.281h-11.398zm1.4102 1.4102v8.4609h8.5781v-8.4609z"/>
			<path d="m303.12 147.48h11.398v11.398h-11.398zm1.418 1.418v8.5625h8.5508v-8.5625z"/>
			<path d="m303.12 163.44h11.398v11.277h-11.398zm1.4102 1.4102v8.457h8.5781v-8.457z"/>
			<path d="m303.12 179.28h11.398v11.398h-11.398zm1.418 1.418v8.5508h8.5508v-8.5508z"/>
			<path d="m303.12 195.12h11.398v11.398h-11.398zm1.418 1.418v8.5508h8.5508v-8.5508z"/>
			<path d="m321.6 131.64h11.277v11.281h-11.277zm1.4102 1.4102v8.4609h8.457v-8.4609z"/>
			<path d="m321.6 147.48h11.277v11.398h-11.277zm1.4102 1.4102v8.5781h8.457v-8.5781z"/>
			<path d="m321.6 163.44h11.277v11.277h-11.277zm1.4102 1.4102v8.457h8.457v-8.457z"/>
			<path d="m321.6 179.28h11.277v11.398h-11.277zm1.4102 1.4102v8.5781h8.457v-8.5781z"/>
			<path d="m321.6 195.12h11.277v11.398h-11.277zm1.4102 1.4102v8.5781h8.457v-8.5781z"/>
			<path d="m303.12 230.88h11.398v11.402h-11.398zm1.418 1.4219v8.5508h8.5508v-8.5508z"/>
			<path d="m303.12 246.84h11.398v11.281h-11.398zm1.4102 1.4102v8.4609h8.5781v-8.4609z"/>
			<path d="m303.12 262.68h11.398v11.398h-11.398zm1.418 1.4219v8.5469h8.5508v-8.5469z"/>
			<path d="m303.12 278.64h11.398v11.281h-11.398zm1.4102 1.4102v8.4609h8.5781v-8.4609z"/>
			<path d="m303.12 294.48h11.398v11.398h-11.398zm1.418 1.418v8.5508h8.5508v-8.5508z"/>
			<path d="m321.6 230.88h11.277v11.402h-11.277zm1.4102 1.4102v8.582h8.457v-8.582z"/>
			<path d="m321.6 246.84h11.277v11.281h-11.277zm1.4102 1.4102v8.4609h8.457v-8.4609z"/>
			<path d="m321.6 262.68h11.277v11.398h-11.277zm1.4102 1.4102v8.582h8.457v-8.582z"/>
			<path d="m321.6 278.64h11.277v11.281h-11.277zm1.4102 1.4102v8.4609h8.457v-8.4609z"/>
			<path d="m321.6 294.48h11.277v11.398h-11.277zm1.4102 1.4102v8.5781h8.457v-8.5781z"/>
			<path d="m303.12 330.24h11.398v11.402h-11.398zm1.418 1.4219v8.5508h8.5508v-8.5508z"/>
			<path d="m303.12 346.2h11.398v11.281h-11.398zm1.4102 1.4102v8.4609h8.5781v-8.4609z"/>
			<path d="m303.12 362.04h11.398v11.402h-11.398zm1.418 1.4219v8.5508h8.5508v-8.5508z"/>
			<path d="m303.12 377.88h11.398v11.402h-11.398zm1.418 1.4219v8.5508h8.5508v-8.5508z"/>
			<path d="m303.12 393.84h11.398v11.281h-11.398zm1.4102 1.4102v8.4609h8.5781v-8.4609z"/>
			<path d="m321.6 330.24h11.277v11.402h-11.277zm1.4102 1.4102v8.582h8.457v-8.582z"/>
			<path d="m321.6 346.2h11.277v11.281h-11.277zm1.4102 1.4102v8.4609h8.457v-8.4609z"/>
			<path d="m321.6 362.04h11.277v11.402h-11.277zm1.4102 1.4102v8.582h8.457v-8.582z"/>
			<path d="m321.6 377.88h11.277v11.402h-11.277zm1.4102 1.4102v8.582h8.457v-8.582z"/>
			<path d="m321.6 393.84h11.277v11.281h-11.277zm1.4102 1.4102v8.4609h8.457v-8.4609z"/>
			<path d="m303.12 429.6h11.398v11.277h-11.398zm1.4102 1.4102v8.457h8.5781v-8.457z"/>
			<path d="m303.12 445.44h11.398v11.398h-11.398zm1.418 1.4219v8.5508h8.5508v-8.5508z"/>
			<path d="m303.12 461.4h11.398v11.281h-11.398zm1.4102 1.4102v8.4609h8.5781v-8.4609z"/>
			<path d="m303.12 477.24h11.398v11.402h-11.398zm1.418 1.4258v8.5508h8.5508v-8.5508z"/>
			<path d="m303.12 493.2h11.398v11.281h-11.398zm1.4102 1.4102v8.4609h8.5781v-8.4609z"/>
			<path d="m321.6 429.6h11.277v11.277h-11.277zm1.4102 1.4102v8.457h8.457v-8.457z"/>
			<path d="m321.6 445.44h11.277v11.398h-11.277zm1.4102 1.4102v8.5781h8.457v-8.5781z"/>
			<path d="m321.6 461.4h11.277v11.281h-11.277zm1.4102 1.4102v8.4609h8.457v-8.4609z"/>
			<path d="m321.6 477.24h11.277v11.402h-11.277zm1.4102 1.4102v8.582h8.457v-8.582z"/>
			<path d="m321.6 493.2h11.277v11.281h-11.277zm1.4102 1.4102v8.4609h8.457v-8.4609z"/>
			<path d="m47.281 31.922h11.277v11.398h-11.277zm1.4102 1.4062v8.582h8.457v-8.582z"/>
			<path d="m47.281 47.879h11.277v11.281h-11.277zm1.4102 1.4102v8.4609h8.457v-8.4609z"/>
			<path d="m47.281 63.719h11.277v11.402h-11.277zm1.4102 1.4102v8.582h8.457v-8.582z"/>
			<path d="m47.281 79.559h11.277v11.402h-11.277zm1.4102 1.4102v8.582h8.457v-8.582z"/>
			<path d="m47.281 95.52h11.277v11.281h-11.277zm1.4102 1.4102v8.4609h8.457v-8.4609z"/>
			<path d="m65.641 31.922h11.398v11.398h-11.398zm1.4258 1.418v8.5508h8.5469v-8.5508z"/>
			<path d="m65.641 47.879h11.398v11.281h-11.398zm1.4102 1.4102v8.4609h8.5781v-8.4609z"/>
			<path d="m65.641 63.719h11.398v11.402h-11.398zm1.4258 1.4219v8.5586h8.5469v-8.5586z"/>
			<path d="m65.641 79.559h11.398v11.402h-11.398zm1.4258 1.4219v8.5508h8.5469v-8.5508z"/>
			<path d="m65.641 95.52h11.398v11.281h-11.398zm1.4102 1.4102v8.4609h8.5781v-8.4609z"/>
			<path d="m47.281 131.28h11.277v11.277h-11.277zm1.4102 1.4102v8.457h8.457v-8.457z"/>
			<path d="m47.281 147.12h11.277v11.398h-11.277zm1.4102 1.4102v8.5781h8.457v-8.5781z"/>
			<path d="m47.281 163.08h11.277v11.281h-11.277zm1.4102 1.4102v8.4609h8.457v-8.4609z"/>
			<path d="m47.281 178.92h11.277v11.398h-11.277zm1.4102 1.4062v8.582h8.457v-8.582z"/>
			<path d="m47.281 194.88h11.277v11.281h-11.277zm1.4102 1.4102v8.4609h8.457v-8.4609z"/>
			<path d="m65.641 131.28h11.398v11.277h-11.398zm1.4102 1.4102v8.457h8.5781v-8.457z"/>
			<path d="m65.641 147.12h11.398v11.398h-11.398zm1.4258 1.418v8.5508h8.5469v-8.5508z"/>
			<path d="m65.641 163.08h11.398v11.281h-11.398zm1.4102 1.4102v8.4609h8.5781v-8.4609z"/>
			<path d="m65.641 178.92h11.398v11.398h-11.398zm1.4258 1.418v8.5508h8.5469v-8.5508z"/>
			<path d="m65.641 194.88h11.398v11.281h-11.398zm1.4102 1.4102v8.4609h8.5781v-8.4609z"/>
			<path d="m47.281 230.64h11.277v11.281h-11.277zm1.4102 1.4102v8.4609h8.457v-8.4609z"/>
			<path d="m47.281 246.48h11.277v11.398h-11.277zm1.4102 1.4102v8.5781h8.457v-8.5781z"/>
			<path d="m47.281 262.32h11.277v11.398h-11.277zm1.4102 1.4102v8.5781h8.457v-8.5781z"/>
			<path d="m47.281 278.28h11.277v11.277h-11.277zm1.4102 1.4102v8.457h8.457v-8.457z"/>
			<path d="m47.281 294.12h11.277v11.398h-11.277zm1.4102 1.4102v8.5781h8.457v-8.5781z"/>
			<path d="m65.641 230.64h11.398v11.281h-11.398zm1.4102 1.4102v8.4609h8.5781v-8.4609z"/>
			<path d="m65.641 246.48h11.398v11.398h-11.398zm1.4258 1.418v8.5508h8.5469v-8.5508z"/>
			<path d="m65.641 262.32h11.398v11.398h-11.398zm1.4258 1.418v8.5508h8.5469v-8.5508z"/>
			<path d="m65.641 278.28h11.398v11.277h-11.398zm1.4102 1.4102v8.457h8.5781v-8.457z"/>
			<path d="m65.641 294.12h11.398v11.398h-11.398zm1.4258 1.418v8.5508h8.5469v-8.5508z"/>
			<path d="m47.281 329.88h11.277v11.402h-11.277zm1.4102 1.4102v8.582h8.457v-8.582z"/>
			<path d="m47.281 345.84h11.277v11.281h-11.277zm1.4102 1.4102v8.4609h8.457v-8.4609z"/>
			<path d="m47.281 361.68h11.277v11.398h-11.277zm1.4102 1.4102v8.582h8.457v-8.582z"/>
			<path d="m47.281 377.64h11.277v11.281h-11.277zm1.4102 1.4102v8.4609h8.457v-8.4609z"/>
			<path d="m47.281 393.48h11.277v11.398h-11.277zm1.4102 1.4102v8.5781h8.457v-8.5781z"/>
			<path d="m65.641 329.88h11.398v11.402h-11.398zm1.4258 1.4219v8.5508h8.5469v-8.5508z"/>
			<path d="m65.641 345.84h11.398v11.281h-11.398zm1.4102 1.4102v8.4609h8.5781v-8.4609z"/>
			<path d="m65.641 361.68h11.398v11.398h-11.398zm1.4258 1.4219v8.5469h8.5469v-8.5469z"/>
			<path d="m65.641 377.64h11.398v11.281h-11.398zm1.4102 1.4102v8.4609h8.5781v-8.4609z"/>
			<path d="m65.641 393.48h11.398v11.398h-11.398zm1.4258 1.418v8.5508h8.5469v-8.5508z"/>
			<path d="m47.281 429.24h11.277v11.402h-11.277zm1.4102 1.4102v8.582h8.457v-8.582z"/>
			<path d="m47.281 445.08h11.277v11.402h-11.277zm1.4102 1.4102v8.582h8.457v-8.582z"/>
			<path d="m47.281 461.04h11.277v11.281h-11.277zm1.4102 1.4102v8.4609h8.457v-8.4609z"/>
			<path d="m47.281 476.88h11.277v11.402h-11.277zm1.4102 1.4102v8.582h8.457v-8.582z"/>
			<path d="m47.281 492.84h11.277v11.281h-11.277zm1.4102 1.4102v8.4609h8.457v-8.4609z"/>
			<path d="m65.641 429.24h11.398v11.402h-11.398zm1.4258 1.4219v8.5508h8.5469v-8.5508z"/>
			<path d="m65.641 445.08h11.398v11.402h-11.398zm1.4258 1.4258v8.5508h8.5469v-8.5508z"/>
			<path d="m65.641 461.04h11.398v11.281h-11.398zm1.4102 1.4102v8.4609h8.5781v-8.4609z"/>
			<path d="m65.641 476.88h11.398v11.402h-11.398zm1.4258 1.4258v8.5508h8.5469v-8.5508z"/>
			<path d="m65.641 492.84h11.398v11.281h-11.398zm1.4102 1.4102v8.4609h8.5781v-8.4609z"/>
		</g>
		<g fill-rule="evenodd">
			<path d="m39.84 504.12h3.6016v-472.2h-3.6016z" fill="#f00"/>
			<path d="m81.121 504.12h3.5977v-472.2h-3.5977z" fill="#00aef0"/>
			<path d="m295.56 504.12h3.6016v-472.2h-3.6016z" fill="#f00"/>
			<path d="m336.84 504.12h3.6016v-472.2h-3.6016z" fill="#00aef0"/>
		</g>
	</g>
</svg>
